<svg width="36" height="36" viewBox="0 0 36 36" fill="none" xmlns="http://www.w3.org/2000/svg">
<rect width="36" height="36" fill="#3E3E3E"/>
<rect width="284" height="476" transform="translate(-140 -20)" fill="white"/>
<path d="M26.3398 2.8418H9.33984C5.47385 2.8418 2.33984 5.9758 2.33984 9.8418V26.8418C2.33984 30.7078 5.47385 33.8418 9.33984 33.8418H26.3398C30.2058 33.8418 33.3398 30.7078 33.3398 26.8418V9.8418C33.3398 5.9758 30.2058 2.8418 26.3398 2.8418Z" fill="#E93F33"/>
<path d="M23.3398 24.6719H11.3398V27.1319H23.3398V24.6719Z" fill="white"/>
<path fill-rule="evenodd" clip-rule="evenodd" d="M19.4503 10.6518C19.1203 9.65179 18.7403 8.8418 17.4503 8.8418C16.1603 8.8418 15.7503 9.63179 15.4503 10.6518L11.8203 21.0918H14.1903L15.0003 18.6318H19.5503L20.3203 21.0918H22.8303L19.4503 10.6518ZM15.7103 16.5118L17.3203 11.5118H17.3803L18.9103 16.5118H15.7103Z" fill="white"/>
</svg>
