<svg xmlns="http://www.w3.org/2000/svg" width="32" height="32" viewBox="0 0 32 32" fill="none">
  <path d="M24.1841 0.642578H7.18408C3.31809 0.642578 0.184082 3.77658 0.184082 7.64258V24.6426C0.184082 28.5086 3.31809 31.6426 7.18408 31.6426H24.1841C28.0501 31.6426 31.1841 28.5086 31.1841 24.6426V7.64258C31.1841 3.77658 28.0501 0.642578 24.1841 0.642578Z" fill="#E93F33"/>
  <path d="M21.1841 22.4727H9.18408V24.9327H21.1841V22.4727Z" fill="white"/>
  <path fill-rule="evenodd" clip-rule="evenodd" d="M17.2946 8.45258C16.9646 7.45258 16.5846 6.64258 15.2946 6.64258C14.0046 6.64258 13.5946 7.43258 13.2946 8.45258L9.66455 18.8926H12.0346L12.8446 16.4326H17.3946L18.1646 18.8926H20.6746L17.2946 8.45258ZM13.5546 14.3126L15.1646 9.31258H15.2246L16.7546 14.3126H13.5546Z" fill="white"/>
</svg>