<svg width="36" height="36" viewBox="0 0 36 36" fill="none" xmlns="http://www.w3.org/2000/svg">
<rect width="36" height="36" fill="#3E3E3E"/>
<rect width="284" height="476" transform="translate(-20 -60)" fill="white"/>
<path d="M17.8398 33.8418C26.4003 33.8418 33.3398 26.9022 33.3398 18.3418C33.3398 9.78138 26.4003 2.8418 17.8398 2.8418C9.27943 2.8418 2.33984 9.78138 2.33984 18.3418C2.33984 26.9022 9.27943 33.8418 17.8398 33.8418Z" fill="#182E5C"/>
<path fill-rule="evenodd" clip-rule="evenodd" d="M7.10987 14.0617C10.9099 11.4617 15.1099 9.94165 22.2099 11.2317C22.3956 11.1416 22.557 11.0084 22.6805 10.8431C22.8041 10.6778 22.8861 10.4853 22.9199 10.2817C20.9333 9.58954 18.8302 9.29396 16.7299 9.41166C13.7929 9.556 10.9214 10.3302 8.30987 11.6817L8.99987 10.8417C11.6008 9.5272 14.4491 8.77424 17.3599 8.63165C19.2608 8.55273 21.1605 8.81349 22.9699 9.40165C22.7599 8.96165 22.2399 8.74165 21.4999 8.40165C19.1199 7.28165 14.6599 7.18166 11.0099 8.86166C11.4887 8.52239 11.9936 8.22144 12.5199 7.96165C14.2804 7.17785 16.1933 6.79529 18.1199 6.84165C20.2462 6.84318 22.2946 7.64254 23.8599 9.08166C24.0602 9.33609 24.2065 9.62872 24.2899 9.94166C25.1758 10.3233 25.9279 10.9604 26.4499 11.7716C26.6123 12.1211 26.6646 12.5118 26.5999 12.8917C26.9649 13.1129 27.2786 13.4095 27.5199 13.7617C27.6967 14.0217 27.8098 14.3197 27.8499 14.6316C27.8987 14.8516 27.898 15.0797 27.8478 15.2993C27.7977 15.5189 27.6993 15.7247 27.5599 15.9017C27.9251 16.1306 28.1924 16.4869 28.3099 16.9017C28.3438 17.3692 28.261 17.8378 28.069 18.2655C27.877 18.6931 27.5818 19.0663 27.2099 19.3516C25.9615 20.3224 24.5294 21.0299 22.9999 21.4317C19.9999 22.2116 17.3999 22.5517 15.3099 22.9517C16.7086 23.327 18.1517 23.512 19.5999 23.5017C22.5172 23.4109 25.3758 22.6587 27.9599 21.3017C27.9599 21.3017 27.8699 21.5917 27.7799 21.8417C24.9649 23.4202 21.7971 24.2629 18.5699 24.2917C16.81 24.2236 15.0675 23.9175 13.3899 23.3816C12.8967 23.5161 12.4152 23.69 11.9499 23.9017C13.941 24.8537 16.1047 25.3913 18.3099 25.4817C21.2496 25.54 24.173 25.0307 26.9199 23.9817C26.7899 24.1217 26.7099 24.3417 26.5799 24.4717C24.5812 25.4202 22.4323 26.0125 20.2299 26.2217C18.4664 26.3135 16.6982 26.2027 14.9599 25.8917C13.6041 25.5946 12.2883 25.1381 11.0399 24.5317C10.8334 24.6905 10.697 24.9238 10.6599 25.1817C15.5499 27.8617 20.1299 27.9216 25.3299 26.1817L24.8499 26.6617C22.7048 27.6792 20.353 28.1853 17.9793 28.1402C15.6056 28.0951 13.2747 27.5 11.1699 26.4017C11.0483 26.3517 10.9312 26.2915 10.8199 26.2217C12.3966 27.8471 14.4968 28.8636 16.7499 29.0917C18.7847 29.2502 20.8299 28.9741 22.7499 28.2817L21.8899 28.7517C20.2571 29.5587 18.4348 29.9045 16.6199 29.7517C14.2184 29.6472 11.9367 28.6734 10.1999 27.0117C9.81269 26.6193 9.55751 26.1159 9.46987 25.5716C8.75939 25.2218 8.1629 24.6774 7.74987 24.0017C7.58521 23.6374 7.55336 23.227 7.65987 22.8417C7.67789 22.7244 7.71152 22.61 7.75987 22.5017C7.38585 22.2638 7.06567 21.9505 6.81987 21.5817C6.68533 21.3212 6.62446 21.0289 6.64385 20.7363C6.66323 20.4438 6.76213 20.1621 6.92987 19.9217C6.72016 19.6994 6.55095 19.4422 6.42987 19.1617C6.34843 18.8657 6.32132 18.5573 6.34987 18.2517C6.43898 17.6913 6.68517 17.1677 7.05987 16.7416C8.17699 15.5957 9.58334 14.7733 11.1299 14.3617C12.5674 13.8779 14.0335 13.4838 15.5199 13.1817C17.4534 12.8723 19.3694 12.4617 21.2599 11.9517C18.7756 11.4408 16.2131 11.4434 13.7298 11.9593C11.2466 12.4752 8.89508 13.4935 6.81987 14.9517L7.10987 14.0617ZM24.1099 10.8317C23.9972 11.1191 23.8232 11.3785 23.5999 11.5917C24.1505 11.7501 24.6914 11.9404 25.2199 12.1617C25.1999 11.6517 24.6299 11.1617 24.1499 10.8417L24.1099 10.8317ZM8.73987 21.3117C8.41987 21.1217 8.19987 20.9817 7.91987 20.7917C7.77987 21.1217 8.04987 21.4917 8.33987 21.6617C8.46987 21.5317 8.60987 21.4317 8.73987 21.3117ZM25.6099 14.4616C25.9581 14.6166 26.2926 14.8005 26.6099 15.0117C26.8399 14.5617 26.6999 14.2617 26.2299 13.8417C26.044 14.0681 25.8364 14.2758 25.6099 14.4616ZM24.5399 15.1417C23.4804 15.6163 22.3789 15.9913 21.2499 16.2617C20.0299 16.5817 17.0199 17.0316 13.7999 17.7716C12.7999 18.0016 10.0199 18.6817 8.65987 19.8917C8.97023 20.1418 9.3053 20.3596 9.65987 20.5417C10.417 20.0573 11.2478 19.6993 12.1199 19.4817C13.8397 19.0161 15.5863 18.6554 17.3499 18.4017C19.6973 18.0117 22.011 17.44 24.2699 16.6917C24.8349 16.4863 25.3671 16.2 25.8499 15.8417C25.4471 15.5498 25.0063 15.3143 24.5399 15.1417ZM10.6099 23.2017C10.9273 23.0077 11.2621 22.8436 11.6099 22.7116C11.0899 22.4916 10.5599 22.2517 10.0299 21.9817C9.80255 22.1253 9.59134 22.2929 9.39987 22.4817C9.79987 22.7217 10.2032 22.9617 10.6099 23.2017ZM8.90987 23.3816C8.90987 23.7316 9.09987 24.0416 9.54987 24.3816C9.60417 24.2001 9.69239 24.0304 9.80987 23.8816C9.50987 23.7516 9.19987 23.5716 8.90987 23.3816ZM11.4099 16.9817C15.0299 15.8717 18.8299 15.5317 22.6799 14.4517C21.4255 14.0003 20.0805 13.8596 18.7599 14.0417C16.3877 14.3339 14.0455 14.8325 11.7599 15.5317C10.9099 15.7917 6.41987 17.1216 7.75987 18.9916C7.69987 19.0116 8.46987 17.8417 11.4099 16.9817ZM24.9999 13.0917C24.3168 12.7826 23.6115 12.5252 22.8899 12.3216C22.4892 12.6562 22.0366 12.9231 21.5499 13.1117C22.4076 13.2979 23.2526 13.5384 24.0799 13.8317C24.2199 13.9017 24.8899 13.2517 24.9999 13.0917ZM26.7899 16.7517L26.4199 17.0517C25.2373 17.861 23.9097 18.4348 22.5099 18.7416C18.7799 19.7416 16.0799 19.9416 12.9999 20.7416C12.3813 20.8966 11.776 21.1005 11.1899 21.3516C11.7883 21.6602 12.4025 21.9372 13.0299 22.1817C14.2272 21.806 15.4505 21.5186 16.6899 21.3216C17.3699 21.2016 19.4999 20.8117 21.0399 20.4717C23.7999 19.8417 27.8599 18.5017 26.7799 16.7517H26.7899Z" fill="white"/>
</svg>
