<svg width="36" height="36" viewBox="0 0 36 36" fill="none" xmlns="http://www.w3.org/2000/svg">
<rect width="36" height="36" fill="#3E3E3E"/>
<rect width="284" height="476" transform="translate(-220 -20)" fill="white"/>
<path fill-rule="evenodd" clip-rule="evenodd" d="M17.8399 33.8418C14.7742 33.8418 11.7775 32.9327 9.22851 31.2296C6.67955 29.5264 4.69288 27.1057 3.51972 24.2734C2.34656 21.4411 2.03961 18.3246 2.63768 15.3179C3.23575 12.3112 4.71198 9.54936 6.8797 7.38165C9.04741 5.21394 11.8092 3.7377 14.816 3.13963C17.8227 2.54156 20.9392 2.84852 23.7714 4.02168C26.6037 5.19484 29.0245 7.1815 30.7276 9.73046C32.4308 12.2794 33.3399 15.2762 33.3399 18.3418C33.3399 22.4527 31.7068 26.3952 28.8 29.302C25.8932 32.2088 21.9507 33.8418 17.8399 33.8418ZM15.6399 11.7518L14.4999 8.36181C12.4032 9.07791 10.583 10.4318 9.29412 12.234C8.00527 14.0361 7.31233 16.1962 7.31233 18.4118C7.31233 20.6274 8.00527 22.7875 9.29412 24.5897C10.583 26.3918 12.4032 27.7457 14.4999 28.4618L15.6399 25.0718C14.232 24.6163 13.0048 23.7263 12.1343 22.5297C11.2638 21.3331 10.7949 19.8915 10.7949 18.4118C10.7949 16.9321 11.2638 15.4905 12.1343 14.2939C13.0048 13.0973 14.232 12.2074 15.6399 11.7518ZM20.9999 8.29181L19.9299 11.7018C21.3665 12.1321 22.627 13.0124 23.5256 14.2131C24.4242 15.4137 24.9135 16.8712 24.9213 18.3709C24.9292 19.8706 24.4552 21.3331 23.5691 22.5431C22.6831 23.7531 21.4319 24.6465 19.9999 25.0918L21.1099 28.4918C23.2386 27.7861 25.0893 26.4246 26.3967 24.6024C27.7042 22.7802 28.4012 20.5909 28.3878 18.3482C28.3745 16.1056 27.6516 13.9247 26.3226 12.1181C24.9936 10.3116 23.1269 8.97218 20.9899 8.29181H20.9999Z" fill="#22B7E3"/>
</svg>
