<svg width="36" height="36" viewBox="0 0 36 36" fill="none" xmlns="http://www.w3.org/2000/svg">
<rect width="36" height="36" fill="#3E3E3E"/>
<rect width="284" height="476" transform="translate(-180 -20)" fill="white"/>
<path d="M26.3398 2.8418H9.33984C5.47385 2.8418 2.33984 5.9758 2.33984 9.8418V26.8418C2.33984 30.7078 5.47385 33.8418 9.33984 33.8418H26.3398C30.2058 33.8418 33.3398 30.7078 33.3398 26.8418V9.8418C33.3398 5.9758 30.2058 2.8418 26.3398 2.8418Z" fill="#FFF22D"/>
<path fill-rule="evenodd" clip-rule="evenodd" d="M28.3398 13.6624L27.5098 12.9324L24.1198 16.0824L23.1798 15.1524V13.1524L22.3498 13.9924V16.4924L21.0098 17.7824L27.6998 24.2224L24.9998 26.8424L18.3098 20.3824L11.6498 26.8424L8.9398 24.2024L15.6298 17.7624L14.2898 16.4724V13.9724L13.4598 13.1324V15.1324L12.5198 16.0624L9.1298 12.9124L8.2998 13.6424C8.4398 10.2424 11.2398 7.64241 13.8898 9.40241L17.3898 12.8424L16.5998 13.5324L18.3398 15.2124L20.0798 13.5324L19.2898 12.8424L22.7498 9.47241C25.3998 7.62241 28.1998 10.2624 28.3398 13.6624Z" fill="black"/>
</svg>
