<svg width="36" height="36" viewBox="0 0 36 36" fill="none" xmlns="http://www.w3.org/2000/svg">
<rect width="36" height="36" fill="#3E3E3E"/>
<rect width="284" height="476" transform="translate(-220 -60)" fill="white"/>
<path d="M18.6603 33.8418C15.7727 33.8411 12.9585 32.9327 10.6155 31.2451C8.2725 29.5574 6.51932 27.1759 5.60388 24.4373C4.68844 21.6987 4.65707 18.7417 5.51421 15.9843C6.37134 13.2269 8.0736 10.8088 10.3803 9.07181L10.5303 8.96179V2.8418H18.4303V6.3118H18.6603C22.2467 6.40847 25.6539 7.90112 28.1564 10.472C30.6589 13.0429 32.0592 16.489 32.0592 20.0768C32.0592 23.6646 30.6589 27.1107 28.1564 29.6816C25.6539 32.2525 22.2467 33.7451 18.6603 33.8418Z" fill="#19502E"/>
<path d="M20.2599 19.0814C20.4651 19.0788 20.6609 18.9954 20.805 18.8494C20.9491 18.7034 21.0299 18.5065 21.0299 18.3014C20.9602 17.9329 20.839 17.5761 20.6699 17.2414V16.8414C20.8381 16.5028 20.9592 16.1428 21.0299 15.7714C21.0423 15.6622 21.0316 15.5517 20.9983 15.447C20.965 15.3423 20.91 15.2458 20.8368 15.1638C20.7636 15.0818 20.674 15.0162 20.5737 14.9713C20.4734 14.9264 20.3648 14.9032 20.2549 14.9032C20.145 14.9032 20.0364 14.9264 19.9361 14.9713C19.8359 15.0162 19.7462 15.0818 19.673 15.1638C19.5999 15.2458 19.5448 15.3423 19.5116 15.447C19.4783 15.5517 19.4675 15.6622 19.4799 15.7714C19.4803 15.9212 19.5256 16.0675 19.6099 16.1914L19.8299 16.5614C19.7549 16.6214 19.6943 16.6974 19.6527 16.784C19.611 16.8706 19.5894 16.9654 19.5894 17.0614C19.5894 17.1574 19.611 17.2523 19.6527 17.3388C19.6943 17.4254 19.7549 17.5014 19.8299 17.5614L19.6099 17.9214C19.5267 18.0458 19.4815 18.1917 19.4799 18.3414C19.4902 18.5413 19.5769 18.7295 19.7221 18.8672C19.8672 19.005 20.0598 19.0817 20.2599 19.0814ZM21.8299 16.5514H28.4999C28.5963 16.554 28.6879 16.5941 28.7551 16.6632C28.8223 16.7323 28.86 16.825 28.8599 16.9214V17.1514C28.86 17.2478 28.8223 17.3404 28.7551 17.4095C28.6879 17.4787 28.5963 17.5188 28.4999 17.5214H27.4999V17.8414H27.9999V18.2814H27.4799V18.7414H27.9999V19.5914H27.4799V19.2014H26.7299V19.5914H26.2199V18.7414H26.7299V18.2814H26.2199V17.8414H26.7299V17.5314H21.5299C21.6823 17.7665 21.7623 18.0412 21.7599 18.3214C21.7174 18.6894 21.541 19.0289 21.2644 19.2753C20.9879 19.5217 20.6304 19.6579 20.2599 19.6579C19.8895 19.6579 19.532 19.5217 19.2554 19.2753C18.9788 19.0289 18.8025 18.6894 18.7599 18.3214C18.7592 18.0076 18.861 17.702 19.0499 17.4514C18.9818 17.408 18.9257 17.3482 18.8868 17.2774C18.8479 17.2066 18.8276 17.1271 18.8276 17.0464C18.8276 16.9656 18.8479 16.8862 18.8868 16.8154C18.9257 16.7446 18.9818 16.6847 19.0499 16.6414C18.861 16.3907 18.7592 16.0852 18.7599 15.7714C18.8025 15.4034 18.9788 15.0639 19.2554 14.8175C19.532 14.5711 19.8895 14.4349 20.2599 14.4349C20.6304 14.4349 20.9879 14.5711 21.2644 14.8175C21.541 15.0639 21.7174 15.4034 21.7599 15.7714C21.7647 16.0519 21.6846 16.3273 21.5299 16.5614L21.8299 16.5514ZM11.4199 15.0714L14.2899 17.8414V16.0314L11.4199 13.2214V15.0714ZM14.2899 15.5214L11.4199 12.7114V10.9014L14.2899 13.7014V15.5214ZM11.4199 10.3514L14.2899 13.1614V11.3514L11.4199 8.54141V10.3514ZM11.4199 17.4814L14.2899 20.3014V18.3714L11.4199 15.5714V17.4814ZM17.5399 15.0714L14.6799 17.8414V16.0314L17.5399 13.2314V15.0714ZM17.5399 12.7114L14.6799 15.5214V13.7014L17.5399 10.9014V12.7114ZM14.6799 20.3014L17.5399 17.4814V15.5714L14.6799 18.3714V20.3014ZM14.6799 13.1614L17.5399 10.3414V8.54141L14.6799 11.3514V13.1614ZM13.8499 8.5614L13.4699 8.19141V3.73141H12.9999V7.73141L12.6199 7.36139V3.69141H12.2299V6.9314L11.8499 6.5614V3.69141H11.4199V7.95139L14.2899 10.8414V3.77139H13.8499V8.5614ZM16.7299 6.97141L17.1099 6.60141V3.73141H17.5399V7.99139L14.6799 10.8414V3.77139H15.1099V8.60141L15.4899 8.23141V3.77139H15.9199V7.77139L16.2999 7.4014V3.73141H16.7299V6.97141Z" fill="#FFCB05"/>
<path d="M24.2299 29.9312L23.6999 30.2112V26.0512H24.2299V29.9312ZM25.8699 25.4212L25.3199 24.9012L25.8699 22.0712V25.4212ZM15.3099 21.8412H16.9999C17.3251 21.8104 17.65 21.9033 17.9099 22.1012C18.0109 22.2264 18.0859 22.3705 18.1305 22.525C18.1752 22.6795 18.1886 22.8414 18.1699 23.0012V27.8012C18.2043 28.1236 18.1109 28.4467 17.9099 28.7012C17.57 28.9316 17.1567 29.0278 16.7499 28.9712H16.4999V31.2412H16.6299L16.9999 31.3012V29.4312C17.3038 29.4719 17.6128 29.4178 17.8848 29.2765C18.1568 29.1351 18.3786 28.9132 18.5199 28.6412V31.4212H18.9999V23.0412C18.9666 22.7126 19.0595 22.3837 19.2599 22.1212C19.3819 22.0177 19.5239 21.9404 19.6769 21.894C19.83 21.8475 19.991 21.833 20.1499 21.8512H20.3399C20.763 21.7805 21.197 21.8773 21.5499 22.1212C21.7467 22.3851 21.8361 22.7139 21.7999 23.0412V25.5012H20.6299V22.8412H20.1299V31.2712L20.6299 31.1912V25.9612H21.7799V30.9612C22.0099 30.8912 22.2499 30.8212 22.4799 30.7312V26.1912C22.4799 25.6812 22.5999 25.2912 23.1199 25.1112L22.5399 21.9512H23.6999L23.8999 25.4112H23.9999L24.1999 21.9512H25.4199L24.7699 25.1112C25.3199 25.3012 25.4199 25.6412 25.4199 26.1912V29.1312C25.7715 28.8773 26.1056 28.6 26.4199 28.3012V21.9312H29.8199C29.8199 21.7812 29.8699 21.6212 29.8899 21.4712H21.8899L22.0099 22.0412C21.8613 21.8021 21.6483 21.6096 21.3955 21.4858C21.1426 21.362 20.8599 21.3119 20.5799 21.3412H20.0799C19.7448 21.296 19.4046 21.3719 19.1204 21.5552C18.8363 21.7386 18.6269 22.0173 18.5299 22.3412C18.4401 21.9994 18.2269 21.703 17.9315 21.5091C17.636 21.3152 17.2792 21.2376 16.9299 21.2912H14.7999V30.7112L15.3099 30.8812V21.8412ZM16.4699 22.8412H16.9999V27.9712H16.4899L16.4699 22.8412ZM29.4699 23.6612C29.5584 23.4125 29.6318 23.1587 29.6899 22.9012H27.7699V23.3712H28.0599C28.5261 23.2748 29.0114 23.3569 29.4199 23.6012L29.4699 23.6612ZM28.3899 26.0212C28.2099 26.3112 28.0199 26.5812 27.8199 26.8612V24.2912H28.3899V26.0212ZM11.5999 23.7712L12.7499 24.8412L12.8699 24.9612C13.2974 25.3144 13.6373 25.7619 13.8628 26.2685C14.0884 26.7751 14.1935 27.3271 14.1699 27.8812V30.0412C13.9145 29.427 13.5129 28.8846 12.9999 28.4612C12.9999 28.4612 10.2999 25.8412 9.99992 25.5512C9.19007 24.6051 8.75279 23.3964 8.76992 22.1512V20.5312C9.12728 21.2602 9.61925 21.915 10.2199 22.4612L11.5999 23.7712ZM8.80992 17.5212V15.6412C9.11775 16.4762 9.61393 17.229 10.2599 17.8412C10.6299 18.2112 11.0599 18.6212 11.5999 19.1412L12.7499 20.2612L12.8799 20.3812C13.3036 20.7349 13.6403 21.1813 13.864 21.6859C14.0877 22.1904 14.1924 22.7397 14.1699 23.2912V25.3612C13.9122 24.7652 13.5101 24.2428 12.9999 23.8412L11.5999 22.4612L9.99992 20.9012C9.18181 19.9704 8.75539 18.7592 8.80992 17.5212ZM18.6599 7.20117H17.9999V8.08118H18.6199C21.4398 8.08391 24.1687 9.07963 26.3277 10.8936C28.4867 12.7076 29.9379 15.224 30.4266 18.0012C30.9154 20.7784 30.4105 23.639 29.0006 26.0811C27.5907 28.5233 25.3657 30.3908 22.7162 31.3561C20.0667 32.3215 17.1619 32.3229 14.5114 31.3602C11.8609 30.3974 9.63417 28.532 8.22184 26.0913C6.80951 23.6506 6.30183 20.7904 6.78789 18.0128C7.27395 15.2351 8.7227 12.7173 10.8799 10.9012V9.78119C8.43203 11.6181 6.71759 14.266 6.04331 17.2513C5.36904 20.2365 5.77894 23.3643 7.19966 26.075C8.62039 28.7857 10.9592 30.9025 13.7978 32.0466C16.6363 33.1907 19.7894 33.2875 22.6928 32.3197C25.5962 31.3519 28.0605 29.3826 29.6448 26.7642C31.2292 24.1458 31.8302 21.0491 31.3404 18.0281C30.8506 15.0071 29.3018 12.2589 26.9713 10.2753C24.6407 8.29166 21.6804 7.20196 18.6199 7.20117H18.6599Z" fill="white"/>
</svg>
