<svg width="36" height="36" viewBox="0 0 36 36" fill="none" xmlns="http://www.w3.org/2000/svg">
<rect width="36" height="36" fill="#3E3E3E"/>
<rect width="284" height="476" transform="translate(-180 -60)" fill="white"/>
<path d="M26.2498 2.8418L10.0898 4.9718V9.80179L26.2498 8.35181V2.8418Z" fill="#E4003A"/>
<path d="M18.4098 24.1823C15.6398 24.1823 14.7698 23.1823 14.7698 20.2823C14.7698 17.3823 15.6298 16.3922 18.4098 16.3922C21.1898 16.3922 22.0298 17.3923 22.0298 20.2823C22.0298 23.1723 21.1998 24.1722 18.4098 24.1722V24.1823ZM20.0698 12.5723C18.0695 12.6124 16.1655 13.4387 14.7698 14.8723V12.9222H10.0898V32.8423H14.7398V25.7523C16.1411 27.187 18.0545 28.007 20.0598 28.0323C24.4498 28.0323 26.8798 25.6523 26.8798 20.2923C26.8798 14.9323 24.4598 12.5723 20.0698 12.5723Z" fill="#00274F"/>
</svg>
