<svg width="36" height="36" viewBox="0 0 36 36" fill="none" xmlns="http://www.w3.org/2000/svg">
<rect width="36" height="36" fill="#3E3E3E"/>
<rect width="284" height="476" transform="translate(-140 -60)" fill="white"/>
<path d="M19.7302 9.04102V13.971H17.8202C16.7013 14.0246 15.6459 14.5069 14.873 15.3177C14.1001 16.1286 13.6689 17.2058 13.6689 18.326C13.6689 19.4462 14.1001 20.5234 14.873 21.3343C15.6459 22.1451 16.7013 22.6274 17.8202 22.681H19.7302V27.611C21.8757 27.1806 23.806 26.0204 25.1928 24.3277C26.5797 22.635 27.3375 20.5143 27.3375 18.326C27.3375 16.1377 26.5797 14.017 25.1928 12.3243C23.806 10.6316 21.8757 9.47144 19.7302 9.04102Z" fill="#003791"/>
<path d="M17.8203 24.2218C17.0257 24.2545 16.2328 24.1263 15.489 23.8448C14.7452 23.5633 14.0661 23.1343 13.4923 22.5837C12.9185 22.0331 12.462 21.3722 12.1501 20.6406C11.8382 19.9091 11.6775 19.122 11.6775 18.3268C11.6775 17.5315 11.8382 16.7445 12.1501 16.013C12.462 15.2814 12.9185 14.6205 13.4923 14.0699C14.0661 13.5193 14.7452 13.0903 15.489 12.8088C16.2328 12.5273 17.0257 12.3991 17.8203 12.4318H18.1903V8.8418H17.8203C15.3008 8.8418 12.8844 9.84267 11.1028 11.6243C9.3212 13.4059 8.32031 15.8222 8.32031 18.3418C8.32031 20.8614 9.3212 23.2777 11.1028 25.0593C12.8844 26.8409 15.3008 27.8418 17.8203 27.8418H18.1903V24.2218H17.8203Z" fill="#FF4B5F"/>
</svg>
