<svg width="36" height="36" viewBox="0 0 36 36" fill="none" xmlns="http://www.w3.org/2000/svg">
<rect width="36" height="36" fill="#3E3E3E"/>
<rect width="284" height="476" transform="translate(-60 -20)" fill="white"/>
<g clip-path="url(#clip0_1001_5484)">
<path d="M26.6111 2.5H9.38889C5.58426 2.5 2.5 5.58426 2.5 9.38889V26.6111C2.5 30.4157 5.58426 33.5 9.38889 33.5H26.6111C30.4157 33.5 33.5 30.4157 33.5 26.6111V9.38889C33.5 5.58426 30.4157 2.5 26.6111 2.5Z" fill="#FFDD2D"/>
<path fill-rule="evenodd" clip-rule="evenodd" d="M31.0782 16.1682L29.9557 16.2037C29.8603 16.2037 29.1708 16.1841 28.5016 15.701C28.5517 15.7056 28.6015 15.7129 28.6526 15.7129C29.341 15.7129 30.0082 15.3005 30.275 14.7096L30.7579 13.643C30.1518 13.6511 29.5983 13.5748 29.5983 13.5748C29.5938 13.5745 29.1571 13.5183 28.6523 13.005C28.2904 12.6372 27.8422 12.4422 27.3572 12.4422C27.1447 12.4422 26.955 12.4805 26.7913 12.5321C26.8171 12.4457 26.8407 12.3579 26.8548 12.2676C27.0095 11.2692 26.3645 10.5082 26.3641 10.5089L25.519 9.46763L24.9955 10.6909C24.9938 10.6944 24.8612 10.9814 24.6249 11.1209C24.5539 10.7615 24.3782 10.3572 24.0033 9.97141C23.2965 9.24348 22.4366 9.13457 21.9866 9.13457C21.7784 9.13457 21.6294 9.15706 21.5931 9.16304L20.5735 9.36223C20.6324 9.13598 20.7581 8.74075 20.9868 8.38523L21.5497 7.51325L20.1337 7.67345L19.6829 6.72034L18.8096 7.16827L18.0023 6.375L17.1971 7.16827L16.322 6.72034L15.8719 7.67345L14.4564 7.51291L15.0201 8.38557C15.2492 8.74075 15.3742 9.13493 15.4325 9.36118L14.4596 9.17041L14.426 9.16479C14.3777 9.15706 14.2298 9.13457 14.0201 9.13457C13.5704 9.13457 12.7101 9.24348 12.0052 9.97105C11.6299 10.3568 11.4538 10.7615 11.3821 11.1209C11.1474 10.9825 11.0157 10.7004 11.0157 10.7004L10.4912 9.47007L9.63338 10.5177C9.52818 10.6526 9.01174 11.3682 9.15188 12.2687C9.16634 12.3586 9.19001 12.4457 9.21541 12.5321C9.05268 12.4798 8.86277 12.4422 8.65061 12.4422C8.16523 12.4422 7.71728 12.6372 7.35439 13.005C6.85102 13.5162 6.50851 13.5521 6.42107 13.5738C6.33363 13.5955 5.96182 13.656 5.25122 13.643L5.73201 14.7096C5.99888 15.3005 6.6664 15.7129 7.35369 15.7129C7.40558 15.7129 7.45501 15.7056 7.50583 15.701C6.83797 16.1841 6.14855 16.2037 6.06524 16.2041L4.92188 16.1682L5.26816 17.2496C5.44255 17.8068 6.02535 18.7297 7.14048 18.8291C7.01904 19.335 6.75007 19.9024 6.15914 20.1469L5.30734 20.496L5.77189 21.3013C6.03383 21.7355 6.65016 22.2436 7.52667 22.2436C7.71587 22.2429 7.89872 22.2239 8.07523 22.1866C8.1204 22.3851 8.17653 22.584 8.24325 22.7814C8.50411 23.5547 8.27926 24.0936 8.27678 24.0996L7.85601 24.9764L8.795 25.2227C8.80664 25.2263 9.09045 25.3038 9.44557 25.3038C9.60654 25.3038 9.76115 25.2872 9.90483 25.253C10.0139 25.2276 10.1191 25.1939 10.2197 25.1531C10.3415 25.3699 10.489 25.568 10.661 25.7454C11.2628 26.3598 12.1157 26.6712 13.1955 26.6712H13.199L13.97 26.6612L12.3772 27.3207L13.5866 27.9024C14.0265 28.1155 14.5468 28.3673 15.0777 28.5602L14.9262 28.9716L15.3435 29.1605C15.3806 29.1774 16.1822 29.5341 17.5145 29.6102C17.5145 29.6102 17.8364 29.625 18.0136 29.625C18.1904 29.625 18.5081 29.6092 18.5081 29.6092C19.8323 29.5311 20.6276 29.1774 20.6646 29.1605L21.0826 28.9709L20.93 28.5591C21.4754 28.3605 22.0159 28.0986 22.4373 27.8937L23.6237 27.32L22.0364 26.6612L22.8105 26.6712C23.8921 26.6712 24.7449 26.3595 25.3458 25.7443C25.517 25.5683 25.6642 25.3709 25.7867 25.1531C25.8876 25.1939 25.9935 25.2276 26.1029 25.2537C26.2467 25.2872 26.4005 25.3038 26.5615 25.3038C26.9106 25.3038 27.1972 25.2273 27.2049 25.2247L28.1479 24.9764L27.7369 24.1156C27.7275 24.0936 27.5025 23.5547 27.7638 22.7807C27.8298 22.5832 27.8856 22.3844 27.9312 22.1866C28.1084 22.2239 28.2934 22.2429 28.4842 22.2436C29.6009 22.2436 30.136 21.4622 30.2393 21.2922L30.6997 20.4953L29.8479 20.1476C29.2556 19.9024 28.9873 19.3353 28.8672 18.8298C29.9679 18.7343 30.5584 17.8106 30.7389 17.2499L31.0782 16.1682Z" fill="#FEFEFE"/>
<path fill-rule="evenodd" clip-rule="evenodd" d="M19.8628 9.00916C19.3491 8.7246 18.683 8.56264 18.0024 8.56264C17.3254 8.56264 16.6592 8.7246 16.1442 9.00916C16.0973 8.85282 16.0319 8.66277 15.943 8.46392L16.1365 8.48676L16.3398 8.50818L16.4273 8.32339L16.6836 7.77849L17.1587 8.02336L17.343 8.11646L17.4895 7.97243L18.0024 7.46619L18.5164 7.97243L18.6636 8.11646L18.8478 8.02336L19.3205 7.77849L19.5803 8.32339L19.6661 8.50818L19.8698 8.48676L20.0639 8.46392C19.9749 8.66277 19.9089 8.85282 19.8628 9.00916ZM18.0024 9.68622C17.1001 9.68727 16.4238 9.98132 16.2766 10.3274L18.0024 11.0057L19.7286 10.3274C19.5828 9.98132 18.9061 9.68727 18.0024 9.68622ZM18.0207 27.6294H18.0189H18.0041H17.9871H17.9857C17.4396 27.6329 16.686 27.5211 16.3238 27.416L15.8875 28.5909C16.1748 28.6927 17.1498 28.8885 18.0041 28.8885C18.8566 28.8885 19.8319 28.6927 20.1189 28.5909L19.6833 27.416C19.3197 27.5211 18.5671 27.6329 18.0207 27.6294ZM19.8511 27.0454C20.2727 26.9178 20.9979 26.6431 21.3227 26.4602L21.1059 27.1661L21.8407 27.4093C21.3964 27.6313 20.8579 27.8385 20.2052 28.0159L19.8511 27.0454ZM14.6837 26.4602L14.9011 27.1661L14.1655 27.4093C14.6096 27.6313 15.1503 27.8385 15.8005 28.0159L16.1552 27.0454C15.7345 26.9178 15.0084 26.6431 14.6837 26.4602ZM28.3855 14.8654C28.4742 14.8959 28.5638 14.9093 28.6528 14.9093C29.0379 14.9093 29.4092 14.6616 29.5375 14.3784C29.5375 14.3784 28.8321 14.3359 28.0731 13.5697C27.832 13.3213 27.5761 13.2472 27.357 13.2472C27.0164 13.2472 26.7608 13.4257 26.7608 13.4257C27.2554 13.6878 27.5375 14.0354 27.7745 14.3274C27.9763 14.5763 28.1455 14.7847 28.3855 14.8654ZM7.61832 14.8654C7.5322 14.8959 7.44218 14.9093 7.35322 14.9093C6.96844 14.9093 6.59603 14.6616 6.46931 14.3788C6.46931 14.3788 7.17425 14.3359 7.93215 13.5697C8.17465 13.321 8.42987 13.2472 8.65049 13.2472C8.98902 13.2472 9.24531 13.426 9.24531 13.426C8.75201 13.6876 8.46969 14.0345 8.2323 14.3262C8.02935 14.5756 7.85926 14.7846 7.61832 14.8654ZM28.1095 20.4579C27.4003 20.1102 26.953 19.1869 26.8447 18.8546C26.7269 20.6849 25.8291 21.9556 24.7792 23.1788C24.2343 23.813 24.0443 24.4295 24.0443 24.4295C24.0443 24.4295 24.1496 23.7308 24.6204 23.1623C25.6 21.9914 26.5309 20.5335 26.6001 18.8475C26.6473 17.671 26.3438 16.7171 25.8694 15.9305C26.1348 16.7495 26.097 17.7521 25.1961 18.6884C25.1961 18.6884 26.9902 16.5492 24.4825 14.356C23.77 13.7634 23.0094 13.3317 22.426 13.0005C22.1876 12.8652 21.9787 12.7467 21.8147 12.6408C23.8573 13.3041 24.8548 12.5741 24.8548 12.5741C24.2028 13.1366 23.358 13.1271 22.8346 13.0459C22.9769 13.1148 23.1245 13.1868 23.2833 13.2718C25.0055 14.2028 26.5534 15.7349 26.8175 17.8565V17.8403C27.2182 19.9237 28.1095 20.4579 28.1095 20.4579ZM28.6337 18.0307C28.6499 18.0318 28.6633 18.0318 28.6795 18.0318C29.6397 18.0318 29.9648 17.0084 29.9648 17.0084H29.9462C29.77 17.0084 28.3425 16.9669 27.3336 15.691C27.3054 15.6553 27.2773 15.6198 27.2496 15.5845C26.6223 14.7894 26.0793 14.1009 25.0501 13.823L24.9442 13.8047L24.9215 13.6972C24.8915 13.5342 25.0045 13.3807 25.2597 13.2156C26.7434 12.2488 25.7356 11.0153 25.7356 11.0153C25.7356 11.0153 25.3119 12.0018 24.3641 12.0018C24.3528 12.0018 24.3412 12.0015 24.3295 12.0011C24.3178 12.0007 24.3058 12.0004 24.2939 12.0004L24.2729 11.9993C24.1726 11.9942 24.0753 11.9891 23.9777 11.9688L23.8032 11.9347C23.8032 11.9347 24.0733 11.2029 23.4209 10.5316C22.9295 10.0246 22.3319 9.93852 21.9866 9.93852C21.813 9.93852 21.7025 9.96067 21.7025 9.96067C22.0302 10.3868 22.267 11.0944 21.889 11.531C21.7622 11.6761 21.565 11.7678 21.3708 11.858C21.063 12.001 20.7628 12.1405 20.7628 12.4831C20.7628 12.7202 20.9857 12.9964 21.3845 13.2444C22.5851 13.9966 23.7767 14.9953 24.2727 16.3332C24.8915 18.0019 24.194 19.1096 23.1985 19.7451C23.1985 19.7451 23.511 20.0311 23.9636 20.0677C24.0557 20.0764 24.1456 20.0809 24.2296 20.0809C25.1856 20.0809 25.6801 19.6345 25.6801 19.6345C25.6801 19.6345 25.5986 20.2511 25.1013 20.8234C24.6419 21.3517 24.0397 21.6633 23.1205 21.6759C23.1205 21.6759 23.0916 22.1007 23.4982 22.4681C23.7591 22.7001 24.3604 22.7752 24.3604 22.7752C24.3604 22.7752 23.2342 23.0025 23.11 24.6575C23.0425 25.5545 22.8121 25.8664 22.8121 25.8664H22.8321C25.4454 25.8664 25.3787 23.6359 25.3787 23.6359C25.3787 23.6359 25.5601 24.2961 26.2894 24.4686C26.3773 24.491 26.4713 24.5001 26.5608 24.5001C26.7952 24.5001 26.9993 24.4454 26.9993 24.4454C26.9993 24.4454 26.6173 23.644 26.9966 22.523C27.3104 21.5927 27.2599 20.9038 27.2599 20.9038C27.2599 20.9038 27.6117 21.4332 28.4844 21.4382H28.4935C29.2203 21.4382 29.537 20.8897 29.537 20.8897C27.7946 20.1698 27.9669 17.847 27.9669 17.847C27.9669 17.847 28.1932 18.0149 28.6337 18.0307ZM9.16068 18.8542C9.27929 20.6849 10.177 21.9556 11.2264 23.1785C11.7711 23.813 11.9635 24.4292 11.9635 24.4292C11.9635 24.4292 11.8569 23.7305 11.3839 23.1628C10.4064 21.9914 9.47555 20.5332 9.40708 18.8475C9.35801 17.6706 9.66193 16.7168 10.1371 15.9306C9.87197 16.7498 9.90833 17.7521 10.8102 18.6888C10.8102 18.6888 9.01594 16.5493 11.5251 14.356C12.237 13.7636 12.9964 13.3323 13.5793 13.0012C13.8178 12.8657 14.0268 12.747 14.1909 12.6409C12.1492 13.3042 11.1516 12.5738 11.1516 12.5738C11.8032 13.1366 12.6476 13.1271 13.1718 13.0459L13.1598 13.0518C13.0215 13.1189 12.8765 13.1892 12.7231 13.2722C11.0002 14.2028 9.45332 15.7352 9.18822 17.8565V17.84C8.78826 19.9233 7.89729 20.4579 7.89729 20.4579C8.60576 20.1102 9.0523 19.1866 9.16068 18.8542ZM12.5089 22.4679C12.248 22.7001 11.6462 22.7752 11.6462 22.7752C11.6462 22.7752 12.7733 23.0021 12.8972 24.6575C12.9646 25.5545 13.193 25.866 13.193 25.866H13.1747C10.5607 25.866 10.6278 23.6356 10.6278 23.6356C10.6278 23.6356 10.4453 24.2961 9.71702 24.4686C9.62983 24.491 9.53664 24.5001 9.44557 24.5001C9.21117 24.5001 9.00819 24.4454 9.00819 24.4454C9.00819 24.4454 9.38803 23.6444 9.00926 22.523C8.69614 21.5927 8.74698 20.9034 8.74698 20.9034C8.74698 20.9034 8.39539 21.4332 7.52207 21.4385H7.51325C6.78677 21.4385 6.46943 20.8897 6.46943 20.8897C8.21077 20.17 8.04027 17.847 8.04027 17.847C8.04027 17.847 7.814 18.0149 7.37239 18.0307C7.35617 18.0318 7.34168 18.0318 7.32651 18.0318C6.36599 18.0318 6.04053 17.0084 6.04053 17.0084H6.05994C6.23715 17.0084 7.66327 16.967 8.67179 15.691C8.70022 15.6551 8.72843 15.6193 8.75647 15.5838C9.38372 14.7894 9.92712 14.1011 10.9543 13.823L11.0623 13.8044L11.0853 13.6973C11.1153 13.5343 11.0026 13.3804 10.7478 13.2156C9.26413 12.2488 10.2716 11.0157 10.2716 11.0157C10.2716 11.0157 10.6927 12.0018 11.6433 12.0018C11.6546 12.0018 11.6657 12.0016 11.6769 12.0013C11.6884 12.001 11.7002 12.0008 11.7125 12.0008L11.7401 11.9993C11.8376 11.9939 11.9336 11.9887 12.0288 11.9688L12.2039 11.9347C12.2039 11.9347 11.9325 11.2029 12.5862 10.5316C13.0772 10.0246 13.6752 9.93821 14.0197 9.93821C14.1945 9.93821 14.3036 9.96069 14.3036 9.96069C13.9767 10.3868 13.7398 11.0944 14.1179 11.5307C14.2444 11.676 14.4416 11.7677 14.6356 11.8581C14.9429 12.0011 15.2425 12.1406 15.2425 12.4831C15.2425 12.7199 15.0201 12.9964 14.6213 13.2444C13.4207 13.9966 12.2293 14.9957 11.7337 16.3332C11.1153 18.0023 11.8128 19.11 12.8093 19.7451C12.8093 19.7451 12.4966 20.0311 12.0429 20.0677C11.9508 20.0764 11.8618 20.0807 11.7761 20.0807C10.8212 20.0807 10.3267 19.6345 10.3267 19.6345C10.3267 19.6345 10.4089 20.2511 10.9031 20.8237C11.3652 21.3517 11.967 21.6633 12.8863 21.676C12.8863 21.676 12.9152 22.1007 12.5089 22.4679ZM17.4127 14.5555H18.0293H18.6442V14.9759C18.4998 14.7996 18.2174 14.8358 18.2174 14.8358V15.4417C18.2174 15.4417 18.2284 15.7403 18.3332 15.8692H18.0293H17.7237C17.8302 15.7403 17.8398 15.4417 17.8398 15.4417V14.8358C17.8398 14.8358 17.5585 14.7996 17.4127 14.9759V14.5555ZM16.0705 14.6188C16.1132 14.6645 16.1552 14.714 16.1961 14.7643L16.2017 14.771C16.2092 14.78 16.2164 14.7888 16.2244 14.7997C16.2618 14.8493 16.2996 14.902 16.3363 14.9561C16.341 14.9622 16.3455 14.9689 16.3503 14.976L16.3548 14.9827L16.3574 14.9864L16.359 14.9888L16.361 14.9916C16.4048 15.0572 16.4461 15.1254 16.487 15.1957C16.864 15.8431 17.4669 16.2306 18.0024 16.2313C18.5383 16.2306 19.1409 15.8431 19.5189 15.1957C19.5606 15.1237 19.6029 15.0537 19.6467 14.9884C19.6534 14.9793 19.6601 14.9698 19.6661 14.9599C19.7032 14.9041 19.7424 14.85 19.783 14.7973C19.7885 14.7901 19.7939 14.7833 19.7991 14.7768L19.8077 14.766C19.8497 14.714 19.8931 14.6641 19.9372 14.6171C19.9403 14.6141 19.9432 14.6112 19.946 14.6083C19.9501 14.6041 19.9541 14.6001 19.9584 14.5963C20.1504 14.401 20.3791 14.2517 20.6789 14.1691L20.5455 14.0918H20.5384L20.0078 13.7855L19.4628 13.4746L18.0067 14.2636L18.0024 14.2601L17.9996 14.2636L16.5431 13.4746L15.9985 13.7855L15.4668 14.0918H15.4608L15.3263 14.1691C15.6264 14.2517 15.8544 14.3992 16.0472 14.5949C16.0505 14.5981 16.0534 14.6014 16.0564 14.6047C16.0607 14.6096 16.065 14.6144 16.0705 14.6188ZM17.5383 12.2773V11.8818L16.8221 11.5818C16.8221 11.5818 16.8285 11.8115 17.1507 12.061C17.3252 12.1979 17.4334 12.2331 17.4572 12.2408C17.46 12.2418 17.4617 12.2423 17.4621 12.2426L17.5383 12.2773ZM17.8766 11.2763V13.7397L16.7166 13.1316L16.3011 10.7451L17.8766 11.2763ZM18.4676 11.8818L19.1838 11.5818C19.1838 11.5818 19.1778 11.8115 18.8544 12.061C18.6798 12.1986 18.5715 12.2334 18.5481 12.2409C18.5454 12.2418 18.5439 12.2423 18.5435 12.2426L18.4676 12.2773V11.8818ZM19.2892 13.1316L19.7033 10.7451L18.1289 11.2763V13.7397L19.2892 13.1316ZM16.0834 19.5156C15.9884 19.5156 15.8021 19.5043 15.6489 19.4488C15.4798 19.3867 15.2278 19.0779 15.2857 18.7379C15.3588 18.6932 15.5282 18.5984 15.6867 18.5984C15.8088 18.5984 15.8921 18.6553 15.9507 18.7779C16.0015 18.8843 16.0933 18.9549 16.1575 18.9953C16.1554 19.0948 16.1459 19.249 16.119 19.3856C16.113 19.4162 16.1053 19.4443 16.0972 19.472C16.094 19.4841 16.0904 19.4948 16.0872 19.504L16.0855 19.5092C16.0847 19.5114 16.084 19.5136 16.0834 19.5156ZM18.2858 18.994L18.2528 19.0262C18.2464 19.0324 18.2422 19.0365 18.2404 19.0384L18.2054 19.0728L16.3959 19.0443C16.3949 19.2228 16.3656 19.3746 16.3373 19.4856C16.3328 19.5042 16.3278 19.5235 16.3229 19.5428L18.4755 19.9278C18.6993 19.7723 19.3156 19.3243 19.5549 19.1487C19.3809 18.8961 19.3643 18.5957 19.4039 18.3842C19.2891 18.3118 19.2023 18.2296 19.1331 18.1425C18.8843 18.4123 18.4321 18.8519 18.2861 18.9937L18.2858 18.994ZM18.2045 16.5759C18.5617 16.5405 18.9613 16.388 19.3786 15.9766H22.0998C21.9813 16.2886 21.8831 16.6262 21.8831 16.962L21.8841 19.13C21.4288 19.0538 21.3747 18.5661 21.373 18.5451L21.3649 18.4453L21.2671 18.4369C21.0687 18.4182 20.9381 18.335 20.8272 18.2278C20.6042 18.0054 20.6038 17.6457 20.6042 17.6429C20.6042 17.6432 20.604 17.6436 20.6038 17.6441C20.6035 17.6449 20.603 17.6459 20.6025 17.6471C20.6011 17.65 20.5989 17.654 20.5959 17.6592C20.5555 17.7333 20.3884 18.0387 20.6402 18.3687C20.7582 18.524 20.93 18.6195 21.152 18.6575C21.2042 18.9276 21.4062 19.3099 21.8841 19.3678V20.4295H20.541C19.9218 20.0859 20.1845 19.4824 20.1962 19.4567L20.2487 19.3425L20.1301 19.2976C19.4594 19.0502 19.644 18.3845 19.6529 18.3553L19.68 18.2588L19.589 18.2159C19.0351 17.9601 19.1099 17.2723 19.1173 17.2434C18.9472 17.3808 18.8858 17.6612 19.003 17.9359C18.9431 18.0045 18.8635 18.0864 18.7757 18.1768L18.7754 18.177L18.7612 18.1917C18.1875 18.0458 18.1695 17.5213 18.1695 17.4978L18.1681 17.417L18.0929 17.3878C17.8691 17.3053 17.7152 17.1816 17.6397 17.0154C17.5546 16.8317 17.5846 16.6385 17.6079 16.5457C17.6736 16.5605 17.7385 16.5703 17.8014 16.5759C17.866 16.5826 17.9316 16.5865 17.9987 16.5865H18.0026H18.0075C18.0742 16.5865 18.1392 16.5826 18.2045 16.5759ZM15.7634 16.9701L15.7267 18.3503L15.8849 18.3742L16.2703 17.0499L16.0748 16.6424L15.7634 16.9701ZM16.5233 21.9967C16.5205 22.0417 16.5533 22.0796 16.5981 22.0806C16.6415 22.0845 16.6789 22.0511 16.6832 22.0072C16.6849 21.965 16.6528 21.9258 16.6077 21.924C16.5636 21.9201 16.5272 21.9542 16.5233 21.9967ZM20.052 23.3075C20.0395 23.3041 20.026 23.3028 20.0143 23.3028C19.9367 23.3028 19.9027 23.371 19.9027 23.371C19.9547 23.5099 19.9678 23.6096 19.9795 23.6998C19.9928 23.8004 20.0045 23.8896 20.0669 24.0088C20.1411 24.1509 20.2644 24.2709 20.34 24.3443C20.3538 24.3579 20.3662 24.3698 20.3762 24.3801C20.3762 24.3801 20.3584 24.5069 20.3402 24.6021L20.1721 25.471C20.0651 25.4856 19.9528 25.4933 19.8364 25.4987L20.0126 24.6629C20.0383 24.5422 19.8922 24.4617 19.6976 24.3546C19.4929 24.242 19.2343 24.0997 19.0648 23.8495C18.9031 24.0305 18.5991 24.0846 18.2934 24.0846C18.0146 24.0846 17.7361 24.04 17.5663 24.0065C17.5236 24.0003 17.4826 23.995 17.442 23.995C17.3442 23.995 17.2549 24.0251 17.1931 24.1281L17.1448 24.2099L16.2323 23.9957L16.0049 24.3706C15.9732 24.4309 15.9711 24.4819 16.0226 24.5385L16.084 24.6055C16.0417 24.7376 15.8518 24.9379 15.8518 24.9379L15.7162 24.7693C15.6089 24.6498 15.6265 24.4309 15.7377 24.2287L16.0999 23.6209L16.873 23.7315L16.7533 23.4592C16.6405 23.2076 16.7264 22.9083 16.7975 22.6608L16.7975 22.6606C16.8283 22.5535 16.8563 22.4562 16.8642 22.3765C16.8553 22.4562 16.7815 22.4745 16.6958 22.4745C16.6541 22.4745 16.6097 22.4702 16.5685 22.4662C16.533 22.4626 16.4999 22.4595 16.473 22.4595C16.4501 22.4595 16.4307 22.4619 16.4204 22.4693L16.2107 22.596L16.0459 22.451C16.0258 22.4233 16.0194 22.3572 16.0678 22.3083L16.4501 21.8815L15.9986 21.3562L16.6312 21.6724L16.8246 21.4396C16.8776 21.4909 16.8543 21.6264 16.8543 21.6264C17.0512 21.6314 17.6055 21.9356 17.6348 22.6474C17.6358 22.6691 17.6358 22.6934 17.6358 22.7173C17.6358 22.7173 17.6414 22.7257 17.651 22.7405C17.6902 22.7939 17.7982 22.9308 17.9348 22.9439L18.8095 23.0299H18.8127C18.8497 23.0299 18.9006 23.0133 18.9633 22.9928C19.0635 22.9603 19.1938 22.9179 19.3447 22.9179C19.4778 22.9179 19.626 22.9517 19.7846 23.0511C19.7846 23.0511 19.8643 22.9885 19.9931 22.9815C20.003 22.9808 20.0143 22.9808 20.0231 22.9808C20.3527 22.9808 20.5203 23.2298 20.6905 23.4828C20.7227 23.5309 20.7552 23.5791 20.7888 23.6258C20.9466 23.8495 21.1587 24.1808 21.1587 24.1808C21.0804 24.2726 21.0081 24.3241 20.8863 24.3241C20.8531 24.3241 20.815 24.3217 20.7733 24.3129C20.5315 24.2688 20.4087 23.9654 20.3023 23.7026C20.2238 23.5085 20.154 23.3364 20.052 23.3075ZM15.3521 24.0932C15.3521 24.0932 15.655 23.9692 15.6818 23.8813L15.6412 23.7804C15.6126 23.7151 15.6169 23.6442 15.6719 23.6054L15.9984 23.381L16.5437 23.4854C16.5437 23.4854 16.4453 23.3624 16.4548 23.198L15.9338 23.0884L15.4432 23.3857C15.2325 23.5426 15.2173 23.7987 15.2868 23.9507L15.3521 24.0932ZM19.5353 25.5037C19.4171 25.5037 19.3088 25.5051 19.2113 25.5094L19.4676 24.7151C19.4945 24.6414 19.4112 24.553 19.3284 24.4652C19.2885 24.4228 19.2488 24.3806 19.2216 24.3403C19.3479 24.419 19.6744 24.5918 19.8318 24.661C19.8159 24.6867 19.5353 25.5037 19.5353 25.5037Z" fill="white"/>
<path fill-rule="evenodd" clip-rule="evenodd" d="M20.1596 20.4297H14.1229V16.9622C14.1229 16.6263 14.0241 16.2887 13.9072 15.9767H16.6278C16.8866 16.2325 17.1396 16.392 17.3808 16.4795C17.3497 16.6028 17.308 16.8575 17.4242 17.1118C17.5191 17.3167 17.6907 17.4744 17.9396 17.5798C17.966 17.8327 18.1277 18.2136 18.5721 18.3818C18.3769 18.5775 18.1877 18.762 18.1111 18.8361L16.3052 18.8076C16.2642 18.7873 16.1943 18.7412 16.1633 18.6766C16.1614 18.6717 16.1588 18.668 16.1563 18.6642C16.1541 18.6609 16.1518 18.6576 16.1498 18.6534L16.4446 18.7008C16.4509 18.7015 16.4573 18.7015 16.4637 18.7015C16.5205 18.7015 16.5703 18.6626 16.5794 18.6046C16.589 18.5392 16.5456 18.4795 16.482 18.47L16.1191 18.4131L16.5215 17.0303L16.1403 16.2325L15.53 16.8747L15.4929 18.3123L15.0827 18.2477C15.0192 18.2354 14.9588 18.281 14.9475 18.345C14.938 18.4082 14.981 18.4683 15.0453 18.4795L15.2176 18.5055C15.1561 18.5403 15.1156 18.5681 15.1106 18.5719L15.0757 18.5961L15.0661 18.639C14.9662 19.0423 15.1918 19.4253 15.4361 19.5963L15.4269 19.6473C15.417 19.7091 15.4315 19.7696 15.4689 19.8205C15.5046 19.8722 15.5582 19.903 15.62 19.9139C15.6323 19.9165 15.6458 19.9175 15.6581 19.9175C15.7633 19.9175 15.8558 19.8446 15.8812 19.7379C15.9723 19.7492 16.0556 19.751 16.1124 19.751H16.1601L18.5294 20.1774L18.57 20.1507C18.7582 20.0196 19.4783 19.498 19.7141 19.3244C19.7786 19.3803 19.8513 19.4302 19.9393 19.472C19.8623 19.727 19.8577 20.1195 20.1596 20.4297ZM14.1229 20.6636H21.8839L21.8854 23.569C21.8854 24.532 21.3174 25.2044 20.4219 25.4236L20.5719 24.6462L20.5738 24.6352C20.5815 24.5918 20.59 24.5432 20.5962 24.5021C20.6385 24.5196 20.6835 24.5344 20.7314 24.5432C20.7875 24.5537 20.839 24.5591 20.8864 24.5591C21.1151 24.5591 21.2486 24.4392 21.3373 24.3369L21.4523 24.2034L21.3583 24.0574C21.3498 24.0429 21.1413 23.7155 20.9816 23.4913C20.9503 23.4474 20.9203 23.4031 20.89 23.3561C20.7078 23.0848 20.4798 22.7456 20.0234 22.7456L19.982 22.7463C19.9071 22.7511 19.8425 22.7655 19.79 22.7855C19.6467 22.7192 19.498 22.6841 19.3445 22.6841C19.1556 22.6841 18.9964 22.7357 18.8905 22.7719C18.8812 22.7745 18.8721 22.7774 18.8634 22.78C18.8439 22.786 18.8263 22.7915 18.8115 22.794L17.9579 22.7104C17.9473 22.7087 17.912 22.6882 17.8696 22.6381V22.6338L18.0543 22.5601C18.0024 21.9477 17.4118 21.571 17.0821 21.4436C17.0676 21.3821 17.038 21.3209 16.9864 21.271L16.8029 21.0979L16.6416 21.2899L16.5621 21.3885L15.3662 20.8993L16.1445 21.8715L15.8378 22.3341C15.7252 22.4533 15.8491 22.572 15.8491 22.572L16.1664 22.7898L16.4951 22.6675C16.5031 22.6675 16.5103 22.6688 16.5176 22.67C16.5209 22.6705 16.5242 22.671 16.5276 22.6713C16.5184 22.6991 16.508 22.7724 16.4983 22.8413C16.4906 22.8952 16.4833 22.9464 16.4774 22.9703L15.9066 22.8587L15.3072 23.1956C14.999 23.421 14.957 23.7935 15.0714 24.0486L15.1378 24.1933L15.232 24.3977L15.4424 24.3114C15.4452 24.3111 15.4481 24.3095 15.4495 24.3081C15.3743 24.5477 15.405 24.7757 15.5392 24.925L15.6669 25.0842L15.8364 25.297L16.0224 25.0986C16.0768 25.0446 16.2547 24.8463 16.3094 24.6774L16.3493 24.5477L16.2589 24.448L16.2434 24.4304L16.3461 24.2625L17.0909 24.4371L17.2583 24.4757L17.3472 24.3293L17.3959 24.2496C17.4051 24.2324 17.4072 24.2298 17.4418 24.2298C17.4679 24.2298 17.4944 24.2324 17.523 24.2389C17.8043 24.2916 18.0634 24.318 18.2932 24.318C18.5167 24.318 18.6501 24.3095 18.8086 24.2572C18.8086 24.2572 19.2086 24.7094 19.2223 24.7259L18.9777 25.4787L18.9664 25.5237C18.5029 25.5612 18.277 25.6625 18.0042 25.9337C17.6081 25.5426 17.3267 25.5013 16.2617 25.5013C14.9867 25.5013 14.1229 24.7571 14.1229 23.569V20.6636Z" fill="#FFDD2D"/>
<path fill-rule="evenodd" clip-rule="evenodd" d="M16.3397 8.50831L16.1363 8.48687L15.9429 8.46369C16.0318 8.66323 16.0971 8.85259 16.1441 9.00927C16.6591 8.72507 17.3252 8.56311 18.0023 8.56311C18.6829 8.56311 19.3493 8.72507 19.8626 9.00927C19.9091 8.85259 19.9749 8.66323 20.0638 8.46369L19.8697 8.48687L19.666 8.50831L19.5802 8.32386L19.3207 7.77862L18.8477 8.02349L18.6634 8.11694L18.5163 7.9722L18.0023 7.4663L17.4894 7.9722L17.3429 8.11694L17.1586 8.02349L16.6835 7.77862L16.4272 8.32386L16.3397 8.50831ZM20.0431 9.46709C19.641 9.1474 18.9124 8.84702 18.0023 8.84702C17.0937 8.84702 16.368 9.1474 15.9631 9.46709C15.9631 9.46709 15.8441 8.75111 15.436 8.1198L16.1689 8.2027L16.5519 7.39187L17.29 7.76989L18.0023 7.06726L18.7172 7.76989L19.4535 7.39187L19.8373 8.2027L20.5708 8.1198C20.1623 8.75111 20.0431 9.46709 20.0431 9.46709ZM16.6079 21.924C16.5637 21.9198 16.5271 21.9543 16.5235 21.997C16.5204 22.0416 16.5535 22.0796 16.5983 22.0807C16.6417 22.0841 16.6791 22.0512 16.6834 22.0073C16.6851 21.9651 16.653 21.9257 16.6079 21.924ZM20.2055 28.016L19.8511 27.0453C20.2725 26.9179 20.9979 26.6432 21.3225 26.4601L21.1062 27.1666L21.8408 27.4092C21.3964 27.6312 20.8577 27.8382 20.2055 28.016ZM18.0042 28.8885C17.1499 28.8885 16.175 28.693 15.8876 28.5912L16.3239 27.416C16.6857 27.5214 17.4394 27.6328 17.9858 27.6293H17.9873H18.0042H18.019H18.0208C18.5669 27.6328 19.3195 27.5214 19.6834 27.416L20.1191 28.5912C19.8316 28.693 18.8567 28.8885 18.0042 28.8885ZM14.1656 27.4092L14.9012 27.1664L14.6834 26.4601C15.0078 26.643 15.7342 26.9177 16.1549 27.0453L15.8002 28.0158C15.1504 27.8381 14.6093 27.6312 14.1656 27.4092ZM21.8738 27.1936L21.4266 27.0233L21.55 26.5631L21.6859 26.0621C21.6859 26.0621 20.8939 26.4899 19.7774 26.8111C19.4607 26.9014 19.221 26.9425 19.221 26.9425V27.2839C19.221 27.2839 18.6237 27.3872 18.0208 27.3872H18.0134H18.0042H17.9926H17.9859C17.3819 27.3872 16.7857 27.2839 16.7857 27.2839V26.9425C16.7857 26.9425 16.5456 26.9014 16.2293 26.8111C15.1128 26.4899 14.3217 26.0621 14.3217 26.0621L14.4555 26.5631L14.5812 27.0233L14.1329 27.1936L13.6355 27.3788C13.6901 27.4051 13.7466 27.4325 13.805 27.4607C14.356 27.7273 15.0648 28.0704 15.7185 28.2483L15.548 28.7121C15.548 28.7121 16.4651 29.128 17.9926 29.1318V29.1325H17.9972H18.0042H18.0099H18.0134V29.1318C19.5429 29.128 20.459 28.7121 20.459 28.7121L20.2878 28.2483C20.9469 28.0688 21.663 27.7216 22.2147 27.454C22.268 27.4282 22.3201 27.403 22.3702 27.3788L21.8738 27.1936ZM29.537 20.8899C29.537 20.8899 29.2205 21.4386 28.4934 21.4386H28.4844C27.6114 21.4335 27.2599 20.9037 27.2599 20.9037C27.2599 20.9037 27.31 21.5929 26.9959 22.5228C26.6175 23.6446 26.9993 24.4453 26.9993 24.4453C26.9993 24.4453 26.7951 24.5001 26.5607 24.5001C26.471 24.5001 26.3774 24.4913 26.2887 24.4687C25.5599 24.296 25.3784 23.6355 25.3784 23.6355C25.3784 23.6355 25.4452 25.8663 22.8319 25.8663H22.8114C22.8114 25.8663 23.0418 25.5544 23.1097 24.6578C23.2339 23.0028 24.36 22.7751 24.36 22.7751C24.36 22.7751 23.7588 22.6998 23.4987 22.4677C23.0909 22.1005 23.1199 21.6758 23.1199 21.6758C24.0395 21.6632 24.6421 21.3515 25.1009 20.8235C25.5983 20.2512 25.6796 19.6347 25.6796 19.6347C25.6796 19.6347 25.1853 20.0805 24.2293 20.0805C24.1454 20.0805 24.0557 20.0767 23.9632 20.0676C23.511 20.0312 23.1982 19.745 23.1982 19.745C24.1933 19.1102 24.8917 18.0018 24.2725 16.333C23.7765 14.9959 22.5848 13.9968 21.3845 13.2443C20.9853 12.9963 20.763 12.7201 20.763 12.483C20.763 12.1404 21.0628 12.0011 21.3702 11.8582C21.5645 11.7679 21.7619 11.6762 21.8886 11.5309C22.2667 11.0942 22.0295 10.387 21.7023 9.96089C21.7023 9.96089 21.8123 9.93839 21.9865 9.93839C22.3319 9.93839 22.9297 10.0245 23.4207 10.5318C24.0729 11.2031 23.8025 11.9349 23.8025 11.9349L23.9773 11.9687C24.0769 11.9898 24.1763 11.9946 24.2786 11.9995L24.2935 12.0003C24.3053 12.0003 24.3171 12.0006 24.3289 12.001C24.3407 12.0013 24.3526 12.0017 24.3642 12.0017C25.3117 12.0017 25.7352 11.0155 25.7352 11.0155C25.7352 11.0155 26.7427 12.2487 25.2594 13.2155C25.0041 13.3809 24.8917 13.5345 24.9213 13.6971L24.9442 13.8046L25.0498 13.8232C26.0781 14.1008 26.6208 14.7883 27.247 15.5817L27.2473 15.5821L27.2508 15.5864L27.2528 15.5889L27.2535 15.5898L27.2554 15.5922L27.2573 15.5947L27.2587 15.5963C27.2833 15.6277 27.3083 15.6592 27.3333 15.6908C28.3425 16.9671 29.7694 17.0083 29.9455 17.0083H29.965C29.965 17.0083 29.6392 18.0316 28.6794 18.0316C28.663 18.0316 28.6492 18.0316 28.6337 18.0306C28.1928 18.0148 27.9665 17.8472 27.9665 17.8472C27.9665 17.8472 27.7947 20.1697 29.537 20.8899ZM28.6795 18.345C29.8565 18.345 30.2504 17.1534 30.2662 17.1024L30.398 16.6823L29.9567 16.696H29.9552C29.7997 16.696 28.5006 16.6619 27.5802 15.4973L27.4934 15.3894L27.489 15.3837C26.8891 14.6245 26.3189 13.9029 25.3012 13.5735C25.331 13.5471 25.373 13.5145 25.4309 13.4769C25.9724 13.1231 26.2872 12.6924 26.3662 12.1928C26.4821 11.4414 25.9999 10.8417 25.9787 10.8174L25.6512 10.4145L25.4464 10.8926L25.4461 10.8932C25.4287 10.9316 25.0842 11.6887 24.3645 11.6887H24.3101C24.2973 11.688 24.2848 11.6873 24.2722 11.6866C24.2364 11.6847 24.2011 11.6828 24.1668 11.6799C24.1921 11.3388 24.1298 10.81 23.6475 10.3136C23.0682 9.71676 22.3579 9.62683 21.9866 9.62683C21.8117 9.62683 21.6885 9.64596 21.6518 9.65168C21.6468 9.65244 21.6436 9.65297 21.6417 9.65318L21.1469 9.75084L21.4526 10.1513C21.6914 10.4601 21.909 11.03 21.6513 11.3272C21.5736 11.4167 21.4183 11.4903 21.2648 11.563L21.2376 11.5759C20.9047 11.7284 20.449 11.9416 20.449 12.483C20.449 12.8329 20.7222 13.1997 21.2175 13.5113C22.6828 14.4282 23.5871 15.3856 23.9775 16.442C24.5818 18.0672 23.7932 18.9943 23.0284 19.4826L22.6845 19.7022L22.9848 19.977L22.9852 19.9772C23.0274 20.014 23.394 20.335 23.9362 20.3812C24.0393 20.3876 24.1375 20.3936 24.2297 20.3936C24.5774 20.3936 24.8741 20.3392 25.1152 20.2656C25.0489 20.3812 24.9669 20.4997 24.865 20.618C24.4272 21.1223 23.889 21.3517 23.1152 21.3642L22.8274 21.3689L22.8055 21.6558C22.8028 21.7138 22.7809 22.246 23.2874 22.699C23.3648 22.7692 23.4583 22.8267 23.5568 22.8734C23.213 23.1812 22.8641 23.7173 22.7968 24.6349C22.7396 25.4015 22.5563 25.6848 22.5539 25.6879L22.2358 26.171L22.8105 26.1787C23.7598 26.1787 24.4863 25.9183 24.99 25.4015C25.288 25.0959 25.4581 24.7506 25.5587 24.4453C25.7235 24.5855 25.9367 24.7084 26.2152 24.7737C26.3208 24.7983 26.4358 24.8113 26.5609 24.8113C26.8216 24.8113 27.0417 24.7577 27.076 24.7494L27.0784 24.7487L27.445 24.6518L27.283 24.3115L27.2823 24.3098C27.2627 24.2639 26.9702 23.5857 27.2943 22.6247C27.4363 22.2028 27.5086 21.8251 27.5439 21.5311C27.7752 21.6506 28.0843 21.7497 28.4842 21.751C29.3788 21.751 29.7805 21.0956 29.8091 21.0491L29.8102 21.0473L29.9891 20.7375L29.6578 20.6015C28.5753 20.1544 28.3361 18.9535 28.2881 18.3039C28.3859 18.3226 28.4977 18.3398 28.6237 18.3433L28.6795 18.345ZM28.0735 13.57C27.8317 13.3213 27.5761 13.2471 27.3569 13.2471C27.0162 13.2471 26.761 13.4263 26.761 13.4263C27.2556 13.6883 27.5377 14.0358 27.7747 14.3276C27.9765 14.5763 28.1456 14.7846 28.3855 14.8653C28.4741 14.8958 28.5635 14.9092 28.6527 14.9092C29.0374 14.9092 29.4089 14.6615 29.5374 14.3791C29.5374 14.3791 28.8321 14.3362 28.0735 13.57ZM27.5303 14.5242C27.3061 14.2477 27.0501 13.9357 26.6113 13.7032L26.1606 13.4618L26.5793 13.1685L26.5846 13.165C26.6392 13.1303 26.947 12.9345 27.3569 12.9345C27.706 12.9345 28.0304 13.0775 28.2984 13.349C28.9499 14.0113 29.5356 14.0647 29.5568 14.0654L30.0118 14.0921L29.8236 14.5073C29.6369 14.9215 29.1438 15.2205 28.6528 15.2205C28.5264 15.2205 28.4031 15.2015 28.2874 15.1618C27.9639 15.0553 27.7561 14.8008 27.5384 14.5342L27.5303 14.5242ZM26.8175 17.8403V17.8561C26.5533 15.7349 25.0059 14.2028 23.2831 13.2718C23.1243 13.1868 22.9767 13.1151 22.8345 13.0463C23.3584 13.1271 24.2031 13.1366 24.8546 12.5741C24.8546 12.5741 23.8575 13.3041 21.8148 12.6409C21.9785 12.7467 22.1874 12.8653 22.4258 13.0006C23.0093 13.3317 23.7698 13.7634 24.4823 14.356C26.99 16.5492 25.196 18.6884 25.196 18.6884C26.0969 17.7521 26.1343 16.7498 25.8692 15.9306C26.344 16.7172 26.6477 17.671 26.5999 18.8475C26.5307 20.5334 25.6002 21.9911 24.6203 23.1624C24.1494 23.7311 24.0445 24.4296 24.0445 24.4296C24.0445 24.4296 24.2348 23.8131 24.7796 23.1789C25.8289 21.9556 26.727 20.6857 26.8442 18.8546C26.953 19.1869 27.4003 20.1101 28.1093 20.458C28.1093 20.458 27.2181 19.9236 26.8175 17.8403ZM10.6273 23.6355C10.6273 23.6355 10.5606 25.8663 13.1742 25.8663H13.1929C13.1929 25.8663 12.9642 25.5544 12.8971 24.6578C12.7729 23.0024 11.6461 22.7751 11.6461 22.7751C11.6461 22.7751 12.2476 22.7 12.5085 22.4677C12.9151 22.1005 12.8862 21.6758 12.8862 21.6758C11.9666 21.6632 11.3648 21.3515 10.9027 20.8235C10.4085 20.2513 10.3266 19.6347 10.3266 19.6347C10.3266 19.6347 10.8208 20.0805 11.7756 20.0805C11.8614 20.0805 11.9504 20.0767 12.0429 20.0676C12.4961 20.0314 12.8092 19.745 12.8092 19.745C11.8127 19.1102 11.1148 18.0021 11.7333 16.333C12.2289 14.9959 13.4203 13.9968 14.6212 13.2443C15.0201 12.9963 15.2421 12.7201 15.2421 12.483C15.2421 12.1405 14.9427 12.0011 14.6355 11.8582C14.4414 11.7678 14.2442 11.676 14.1175 11.5306C13.7397 11.0942 13.9762 10.3867 14.3028 9.9609C14.3028 9.9609 14.1944 9.93841 14.0197 9.93841C13.6744 9.93841 13.0772 10.0245 12.5858 10.5318C11.9317 11.2031 12.2035 11.9349 12.2035 11.9349L12.0287 11.9687C11.9316 11.9893 11.8335 11.9943 11.7344 11.9995L11.7121 12.0006C11.6998 12.0006 11.6882 12.0009 11.6767 12.0012C11.6655 12.0014 11.6544 12.0017 11.6429 12.0017C10.6926 12.0017 10.2712 11.0159 10.2712 11.0159C10.2712 11.0159 9.26404 12.2487 10.7474 13.2155C11.0026 13.3806 11.1148 13.5341 11.0848 13.6971L11.0622 13.8046L10.9542 13.8232C9.92639 14.1014 9.38301 14.7896 8.7555 15.5844C8.72764 15.6196 8.69962 15.6552 8.67136 15.6908C7.6632 16.9672 6.23708 17.0083 6.05986 17.0083H6.04009C6.04009 17.0083 6.36592 18.0317 7.32644 18.0317C7.34161 18.0317 7.35608 18.0317 7.37197 18.0306C7.81357 18.0148 8.03985 17.8472 8.03985 17.8472C8.03985 17.8472 8.21035 20.1697 6.46934 20.8899C6.46934 20.8899 6.78635 21.4383 7.51316 21.4383H7.52163C8.39532 21.4335 8.74655 20.9037 8.74655 20.9037C8.74655 20.9037 8.69573 21.5929 9.00883 22.5228C9.38759 23.6446 9.00777 24.4453 9.00777 24.4453C9.00777 24.4453 9.21039 24.5001 9.44549 24.5001C9.53622 24.5001 9.62941 24.4913 9.71659 24.4684C10.4452 24.296 10.6273 23.6355 10.6273 23.6355ZM13.4515 25.686C13.452 25.6868 13.4523 25.6874 13.4523 25.6875L13.7704 26.171L13.1957 26.1787C12.2465 26.1787 11.5207 25.918 11.0156 25.4016C10.7187 25.0959 10.5478 24.7506 10.4479 24.4453C10.2841 24.5855 10.0688 24.7084 9.7903 24.7737C9.68581 24.7983 9.57037 24.8113 9.44577 24.8113C9.17958 24.8113 8.95402 24.7553 8.92855 24.7489L8.92828 24.7487L8.56079 24.6518L8.72352 24.3115L8.72464 24.3089C8.74753 24.255 9.03461 23.5794 8.71188 22.6247C8.56997 22.2024 8.49762 21.8251 8.46231 21.5311C8.23109 21.6506 7.92222 21.7497 7.52473 21.7507C6.62217 21.7507 6.21965 21.0863 6.19652 21.0482L6.19606 21.0473L6.01743 20.7372L6.34784 20.6015C7.43013 20.1544 7.67018 18.9535 7.71924 18.304C7.6197 18.3226 7.50781 18.3398 7.38355 18.3433L7.32671 18.3451C6.14909 18.3451 5.75622 17.1534 5.74068 17.1025L5.60583 16.6823L6.0492 16.696C6.20488 16.696 7.50603 16.6619 8.4256 15.4973L8.51243 15.3894L8.51861 15.3816C9.11786 14.6232 9.68719 13.9026 10.7053 13.5735C10.6756 13.5472 10.635 13.5145 10.5761 13.4769C10.0346 13.1231 9.71935 12.6924 9.64098 12.1928C9.52599 11.4556 9.98865 10.8644 10.0239 10.8194L10.0254 10.8174L10.3565 10.4145L10.5605 10.8926C10.5736 10.9228 10.9167 11.6887 11.6432 11.6887H11.6965C11.7087 11.688 11.7208 11.6873 11.7327 11.6867C11.7689 11.6847 11.8041 11.6828 11.8391 11.6799C11.8144 11.3384 11.8776 10.8104 12.3601 10.3133C12.9394 9.71676 13.6482 9.62683 14.0199 9.62683C14.1962 9.62683 14.3186 9.64612 14.3543 9.65175C14.3589 9.65247 14.3621 9.65297 14.3638 9.65318L14.8611 9.75084L14.554 10.1513C14.3143 10.4598 14.0969 11.03 14.3549 11.3272C14.4318 11.4158 14.5846 11.4884 14.7365 11.5606L14.7687 11.5759C15.1019 11.7284 15.5562 11.9416 15.5562 12.483C15.5562 12.8329 15.2851 13.1997 14.7898 13.5113C13.3224 14.4282 12.4194 15.3856 12.029 16.442C11.4257 18.0672 12.2112 18.9939 12.9789 19.4826L13.3224 19.7022L13.0213 19.977C12.9807 20.0128 12.6129 20.3349 12.0693 20.3812C11.9669 20.3876 11.8695 20.3936 11.7759 20.3936C11.4272 20.3936 11.1321 20.3392 10.8913 20.2656C10.9584 20.3812 11.0403 20.4993 11.1416 20.618C11.5789 21.1219 12.1187 21.3517 12.89 21.3642L13.1798 21.3689L13.1992 21.6558C13.2027 21.7138 13.2246 22.246 12.7184 22.699C12.6408 22.7692 12.5486 22.8267 12.4487 22.8734C12.7933 23.1812 13.142 23.7173 13.2105 24.6349C13.2669 25.3729 13.4378 25.6627 13.4515 25.686ZM7.93221 13.5696C8.17472 13.3212 8.42995 13.2467 8.65022 13.2467C8.98911 13.2467 9.24573 13.4259 9.24573 13.4259C8.75251 13.6877 8.47022 14.0345 8.23291 14.326C8.02981 14.5755 7.85966 14.7846 7.61841 14.8652C7.53226 14.8958 7.4426 14.9092 7.35329 14.9092C6.96887 14.9092 6.59646 14.6615 6.46939 14.379C6.46939 14.379 7.17468 14.3362 7.93221 13.5696ZM7.35315 15.2205C7.47951 15.2205 7.60236 15.2018 7.71885 15.1621C8.04352 15.0551 8.2515 14.8 8.46912 14.5331L8.47638 14.5242L8.48272 14.5164C8.7067 14.2422 8.95881 13.9335 9.39419 13.7031L9.84603 13.4618L9.42631 13.1684L9.42066 13.1649C9.36555 13.1297 9.05913 12.9345 8.65007 12.9345C8.30023 12.9345 7.97547 13.0771 7.70755 13.349C7.05591 14.0116 6.4717 14.065 6.45052 14.0653L5.99585 14.092L6.18259 14.5073C6.37004 14.9215 6.86318 15.2205 7.35315 15.2205ZM10.137 15.9306C9.66186 16.7172 9.35828 17.6707 9.40735 18.8476C9.47548 20.5336 10.406 21.9915 11.3838 23.1624C11.8568 23.7306 11.9631 24.4296 11.9631 24.4296C11.9631 24.4296 11.771 23.8131 11.2267 23.1786C10.1772 21.9556 9.27956 20.685 9.16095 18.8546C9.05223 19.187 8.60569 20.1103 7.89756 20.458C7.89756 20.458 8.78819 19.9238 9.18813 17.84V17.8566C9.45323 15.735 11.0004 14.2029 12.7234 13.2719C12.8651 13.1957 12.9994 13.13 13.1273 13.0674L13.1717 13.0456C12.6482 13.1272 11.8035 13.1366 11.1515 12.5742C11.1515 12.5742 12.1491 13.3042 14.1912 12.6409C14.0275 12.7467 13.8191 12.865 13.5812 13.0001C12.998 13.3313 12.2376 13.7631 11.525 14.356C9.01621 16.5493 10.8109 18.6888 10.8109 18.6888C9.90789 17.7522 9.8719 16.7496 10.137 15.9306ZM17.4129 14.5557V14.9762C17.5587 14.7998 17.84 14.836 17.84 14.836V15.4419C17.84 15.4419 17.8305 15.7405 17.7239 15.8695H18.0295H18.3334C18.2286 15.7405 18.2177 15.4419 18.2177 15.4419V14.836C18.2177 14.836 18.5 14.7998 18.6444 14.9762V14.5557H18.0295H17.4129ZM17.4575 12.2414C17.4343 12.2338 17.3259 12.1987 17.1509 12.0607C16.8283 11.8117 16.8219 11.5823 16.8219 11.5823L17.5384 11.8819V12.2778L17.4622 12.243C17.4618 12.2428 17.4602 12.2423 17.4575 12.2414ZM18.8545 12.0607C19.1782 11.8117 19.1845 11.5823 19.1845 11.5823L18.4677 11.8819V12.2778L18.5435 12.243C18.5439 12.2428 18.5455 12.2423 18.5482 12.2414C18.5715 12.2338 18.6798 12.1987 18.8545 12.0607ZM16.2766 10.3274L18.0024 11.0058L19.7286 10.3274C19.5828 9.98138 18.9061 9.68769 18.0024 9.68662C17.1001 9.68769 16.4238 9.98138 16.2766 10.3274ZM18.1291 13.7397L19.2894 13.132L19.7031 10.7448L18.1291 11.2767V13.7397ZM20.5384 14.0918L20.0078 13.7854L19.4627 13.4745L18.0066 14.2635L18.0024 14.2604L17.9995 14.2635L16.5434 13.4745L15.9984 13.7854L15.4668 14.0918H15.4611L15.3266 14.1694C15.6263 14.2516 15.854 14.3992 16.0475 14.5952C16.0505 14.5981 16.0534 14.6013 16.0562 14.6045C16.0605 14.6095 16.0649 14.6145 16.0704 14.6187C16.1131 14.6644 16.1555 14.7143 16.1961 14.7642C16.1978 14.7663 16.1996 14.7685 16.2014 14.7706C16.209 14.7798 16.2166 14.7889 16.2243 14.8C16.2617 14.8492 16.2995 14.9022 16.3362 14.956C16.3408 14.9619 16.3453 14.9687 16.3499 14.9757C16.3534 14.981 16.3571 14.9865 16.3609 14.9918C16.4047 15.0572 16.446 15.1257 16.4869 15.1959C16.864 15.8434 17.4669 16.2306 18.0024 16.2313C18.5386 16.2306 19.1412 15.8434 19.5189 15.1959C19.5605 15.1239 19.6029 15.0537 19.6466 14.9887C19.653 14.9795 19.6601 14.9697 19.6661 14.9602C19.7031 14.9043 19.7422 14.8499 19.7829 14.7975C19.7874 14.7917 19.7918 14.7861 19.7961 14.7807C19.8001 14.7756 19.8041 14.7707 19.8077 14.7659C19.8497 14.7143 19.8931 14.664 19.9372 14.617C19.9406 14.6138 19.9439 14.6105 19.9472 14.6073C19.9508 14.6035 19.9546 14.5998 19.9584 14.5966C20.1507 14.4009 20.3791 14.2516 20.6788 14.1694L20.5453 14.0918H20.5384ZM21.883 16.962C21.883 16.6261 21.9809 16.2885 22.0996 15.9766H19.3784C18.9618 16.3879 18.5619 16.5408 18.2043 16.5759C18.1397 16.5826 18.074 16.5868 18.0077 16.5868H18.0024H17.9985C17.9321 16.5868 17.8657 16.5826 17.8015 16.5759C17.739 16.5706 17.6734 16.5608 17.6077 16.5457C17.5844 16.6384 17.5544 16.8313 17.6395 17.0154C17.7157 17.1816 17.8689 17.3056 18.0931 17.3878L18.1686 17.417L18.1697 17.4977C18.1697 17.522 18.1873 18.0462 18.761 18.1916L18.7645 18.188C18.8566 18.0935 18.9404 18.0077 19.0028 17.9362C18.8856 17.6611 18.947 17.3808 19.1175 17.2434C19.1101 17.2726 19.0352 17.9601 19.5887 18.2155L19.6802 18.2591L19.653 18.356C19.6442 18.3848 19.4595 19.0502 20.1299 19.2979L20.2486 19.3422L20.1962 19.457C20.1843 19.483 19.9217 20.0865 20.5408 20.4291H21.884V19.3685C21.4068 19.3102 21.2041 18.9283 21.1519 18.6574C20.9302 18.6198 20.7582 18.5239 20.64 18.3687C20.3884 18.0383 20.5553 17.7332 20.5958 17.6591C20.6006 17.6503 20.6037 17.6448 20.604 17.6428C20.6037 17.646 20.604 18.0061 20.8274 18.2281C20.9376 18.3349 21.0692 18.4182 21.2669 18.4368L21.3647 18.4459L21.3735 18.545C21.3752 18.5665 21.4286 19.0537 21.884 19.13L21.883 16.962ZM20.5718 24.6459L20.4218 25.4233C21.3174 25.2041 21.8854 24.5317 21.8854 23.5689L21.884 20.6635H14.1225V23.5689C14.1225 24.7574 14.9867 25.501 16.2617 25.501C17.3271 25.501 17.6077 25.5425 18.0041 25.9335C18.277 25.6624 18.5026 25.5611 18.9664 25.5236L18.9774 25.4783L19.2223 24.7264C19.2086 24.7088 18.8086 24.2571 18.8086 24.2571C18.6498 24.3094 18.5163 24.3182 18.2932 24.3182C18.0634 24.3182 17.804 24.2915 17.523 24.2388C17.4947 24.2324 17.4683 24.23 17.4418 24.23C17.4072 24.23 17.4054 24.2324 17.3959 24.2493L17.3476 24.329L17.2586 24.4756L17.0906 24.4369L16.3461 24.2624L16.2441 24.4303L16.2592 24.4482L16.3493 24.5476L16.309 24.6769C16.2547 24.8462 16.0768 25.0443 16.0224 25.0984L15.8364 25.2976L15.6669 25.0841L15.5395 24.9249C15.4057 24.7756 15.3746 24.5476 15.4502 24.3077C15.4484 24.3094 15.4452 24.3104 15.4424 24.3111L15.2324 24.3976L15.1381 24.1935L15.0714 24.0487C14.957 23.7933 14.999 23.4209 15.3072 23.1953L15.9066 22.8588L16.4774 22.9706C16.4836 22.9461 16.491 22.8936 16.4988 22.8385C16.5084 22.7706 16.5186 22.6988 16.5275 22.6712C16.5239 22.6707 16.5203 22.6702 16.5168 22.6695C16.5096 22.6683 16.5025 22.6669 16.4947 22.6669L16.1664 22.7892L15.8491 22.5722C15.8491 22.5722 15.7255 22.4527 15.8374 22.334L16.1442 21.8713L15.3665 20.8992L16.5621 21.3882L16.6419 21.2898L16.8032 21.0976L16.9864 21.2709C17.0383 21.3208 17.068 21.3818 17.0824 21.4433C17.4114 21.5706 18.0024 21.9476 18.0546 22.5601L17.8696 22.634V22.6378C17.9124 22.6881 17.9469 22.7084 17.9579 22.7105L18.8118 22.7942C18.826 22.7914 18.8424 22.7863 18.8607 22.7808C18.8703 22.7778 18.8804 22.7747 18.8909 22.7716C18.9964 22.7362 19.1556 22.6838 19.3448 22.6838C19.4984 22.6838 19.6466 22.7186 19.7899 22.7854C19.8426 22.7658 19.9072 22.751 19.9823 22.7463L20.0233 22.7453C20.4799 22.7453 20.7072 23.0839 20.8892 23.355L20.8899 23.356C20.9202 23.4033 20.9502 23.4469 20.9817 23.4912C21.1415 23.7152 21.3496 24.0425 21.3584 24.0571L21.4522 24.2033L21.3372 24.3368C21.2485 24.4391 21.1148 24.5588 20.886 24.5588C20.8391 24.5588 20.788 24.5536 20.7315 24.5429C20.6831 24.5338 20.6386 24.5195 20.5963 24.502C20.5896 24.5466 20.5799 24.5999 20.5718 24.6459ZM15.6817 23.8811L15.6415 23.7805C15.6125 23.7152 15.6164 23.6443 15.6718 23.6057L15.9983 23.3815L16.5437 23.4855C16.5437 23.4855 16.4452 23.3625 16.4547 23.1982L15.9341 23.0885L15.4431 23.3858C15.2324 23.5428 15.2172 23.7988 15.2871 23.951L15.352 24.0933C15.352 24.0933 15.6552 23.9693 15.6817 23.8811ZM20.1723 25.4712L20.34 24.602C20.3586 24.5071 20.3764 24.38 20.3764 24.38C20.3669 24.3705 20.3557 24.3597 20.3431 24.3475C20.2679 24.2743 20.1423 24.1525 20.0667 24.0094C20.0044 23.89 19.9926 23.8007 19.9794 23.6997C19.9677 23.6093 19.9546 23.5098 19.9029 23.371C19.9029 23.371 19.9365 23.3029 20.0142 23.3029C20.0261 23.3029 20.0395 23.3043 20.0522 23.3078C20.154 23.3365 20.2236 23.5084 20.3021 23.7023C20.4084 23.9651 20.5314 24.2688 20.7735 24.3132C20.815 24.3213 20.8529 24.3242 20.886 24.3242C21.0082 24.3242 21.0806 24.2729 21.1586 24.1808C21.1586 24.1808 20.9468 23.8499 20.789 23.6264C20.7556 23.5799 20.7234 23.532 20.6912 23.4841C20.5207 23.2304 20.3529 22.9807 20.0233 22.9807C20.0142 22.9807 20.0028 22.9807 19.9933 22.9821C19.8642 22.9881 19.7846 23.051 19.7846 23.051C19.6262 22.952 19.4779 22.9182 19.3448 22.9182C19.1938 22.9182 19.0634 22.9606 18.9631 22.9933C18.9005 23.0136 18.8496 23.0303 18.8129 23.0303H18.8093L17.9353 22.9439C17.7983 22.9311 17.69 22.7942 17.6511 22.7401C17.6416 22.7257 17.6363 22.7169 17.6363 22.7169C17.6363 22.6936 17.6363 22.6692 17.6349 22.6476C17.6053 21.9358 17.0514 21.6314 16.8541 21.6264C16.8541 21.6264 16.8774 21.4915 16.8241 21.4395L16.631 21.6723L15.9984 21.3563L16.4502 21.8814L16.0679 22.3087C16.0196 22.3574 16.0256 22.4229 16.0457 22.4506L16.2109 22.596L16.4206 22.4699C16.4308 22.4618 16.4502 22.4597 16.4728 22.4597C16.4996 22.4597 16.5327 22.4628 16.5682 22.4663C16.6095 22.4702 16.654 22.4746 16.6959 22.4746C16.7814 22.4746 16.8551 22.4565 16.8639 22.3767C16.8561 22.4565 16.8281 22.5538 16.7974 22.6609C16.7264 22.9084 16.6406 23.2075 16.7535 23.4591L16.8735 23.7318L16.1001 23.6205L15.7382 24.229C15.6263 24.4313 15.609 24.6502 15.716 24.7696L15.8516 24.9382C15.8516 24.9382 16.0415 24.7381 16.0838 24.606L16.0224 24.5388C15.9705 24.4818 15.9733 24.4313 16.0051 24.3705L16.2317 23.9963L17.1446 24.21L17.1933 24.1284C17.2551 24.0259 17.344 23.9953 17.4418 23.9953C17.4824 23.9953 17.5237 23.9999 17.5664 24.007C17.7359 24.0402 18.0144 24.0845 18.2933 24.0845C18.599 24.0845 18.9032 24.0301 19.0649 23.8499C19.2342 24.0996 19.4925 24.2419 19.6972 24.3545C19.8921 24.4618 20.0381 24.5423 20.0124 24.6632L19.8363 25.4983C19.9527 25.4936 20.0653 25.4859 20.1723 25.4712ZM19.2114 25.5093C19.3085 25.5055 19.4175 25.5041 19.5351 25.5041C19.5351 25.5041 19.8161 24.6867 19.832 24.6607C19.6745 24.5919 19.348 24.4193 19.2216 24.3402C19.2489 24.3809 19.2889 24.4234 19.329 24.466C19.4116 24.5536 19.4946 24.6416 19.4673 24.7155L19.2114 25.5093ZM15.7633 16.9704L15.7269 18.3502L15.8847 18.3744L16.2701 17.0498L16.0746 16.6426L15.7633 16.9704ZM16.1572 18.9954C16.0933 18.955 16.0015 18.8844 15.9503 18.7779C15.8924 18.6553 15.8088 18.5984 15.687 18.5984C15.5282 18.5984 15.3587 18.6933 15.2857 18.7379C15.2278 19.0783 15.4798 19.3867 15.6489 19.4489C15.8021 19.5044 15.9881 19.5159 16.0834 19.5159C16.0846 19.5118 16.0862 19.5073 16.0878 19.5023C16.0908 19.4935 16.0942 19.4834 16.0971 19.4724C16.1053 19.4446 16.113 19.4162 16.1194 19.386C16.1459 19.249 16.1554 19.0948 16.1572 18.9954ZM18.4754 19.9277C18.6992 19.7722 19.3159 19.3242 19.5549 19.1489C19.3808 18.896 19.3642 18.5956 19.4034 18.3848C19.2894 18.3121 19.2026 18.2295 19.133 18.1424C18.8688 18.4292 18.3752 18.9072 18.2625 19.0163C18.2506 19.0279 18.2429 19.0353 18.2403 19.0379L18.2053 19.073L16.3962 19.0442C16.3948 19.2231 16.3658 19.3745 16.3376 19.4858C16.3349 19.4969 16.3319 19.5083 16.3289 19.5197C16.3268 19.5275 16.3248 19.5353 16.3228 19.5431L18.4754 19.9277ZM17.3804 16.4789C17.14 16.3918 16.8865 16.2323 16.6274 15.9766H13.9069C14.0237 16.2885 14.1226 16.6261 14.1226 16.962V20.4291H20.1595C19.8578 20.1192 19.8626 19.7269 19.9386 19.4725C19.8511 19.4303 19.7787 19.3801 19.7141 19.3246C19.4779 19.4978 18.7585 20.0192 18.5697 20.1506L18.5294 20.1769L16.1604 19.7514H16.1121C16.0552 19.7514 15.9723 19.749 15.8812 19.7381C15.8558 19.8445 15.7633 19.9169 15.6578 19.9169C15.6458 19.9169 15.6323 19.9162 15.62 19.9138C15.5582 19.9033 15.5045 19.8719 15.4686 19.8203C15.4315 19.7696 15.417 19.7093 15.4272 19.6474L15.4357 19.5962C15.1918 19.4251 14.9662 19.0425 15.0661 18.6388L15.0757 18.596L15.1106 18.5717C15.1152 18.5678 15.1561 18.5401 15.2172 18.5057L15.0453 18.4793C14.9807 18.4681 14.9373 18.408 14.9475 18.3451C14.9585 18.2812 15.0192 18.2348 15.0827 18.2471L15.4929 18.3121L15.5303 16.8749L16.1407 16.2323L16.5215 17.0301L16.1195 18.4126L16.4817 18.4695C16.5455 18.4797 16.589 18.5391 16.5794 18.6044C16.5699 18.6624 16.5205 18.7014 16.4633 18.7014C16.457 18.7014 16.4509 18.7014 16.4446 18.7006L16.1502 18.6536C16.152 18.6577 16.1542 18.661 16.1564 18.6642C16.1589 18.6679 16.1614 18.6716 16.1632 18.6764C16.1943 18.7414 16.2642 18.7871 16.3052 18.8074L18.1108 18.8359L18.1181 18.8287C18.199 18.7501 18.3832 18.571 18.5721 18.3813C18.1273 18.2137 17.966 17.8329 17.9388 17.5796C17.6907 17.4742 17.5191 17.3165 17.4238 17.1117C17.308 16.8576 17.349 16.6029 17.3804 16.4789ZM17.8767 11.2767L16.3012 10.7448L16.7164 13.132L17.8767 13.7397V11.2767ZM18.0062 9.30581C19.1281 9.30581 20.1447 9.84648 20.1447 10.4476L20.1228 10.5955L19.6745 13.1551L20.1228 13.4151L21.2891 14.0918H21.285C21.285 14.0918 21.5471 14.2256 21.6668 14.3082C22.1127 14.6142 22.2059 15.0617 21.9482 15.2465C21.884 14.8819 21.5948 14.501 21.053 14.501C20.6622 14.501 20.365 14.7006 20.1228 15.0024C20.0626 15.0782 20.0038 15.1594 19.9484 15.2465C19.8807 15.3568 19.8135 15.4534 19.7465 15.5462H22.7466C22.5253 15.9874 22.3164 16.4544 22.3164 16.962V23.5689C22.3164 25.1683 21.0823 25.9311 19.7448 25.9311C19.6669 25.9311 19.5941 25.9307 19.5258 25.9305C18.6874 25.9274 18.5287 25.9269 18.0041 26.4496C17.4773 25.9269 17.3184 25.9274 16.4806 25.9305C16.4123 25.9307 16.3396 25.9311 16.2617 25.9311C14.9253 25.9311 13.6894 25.1683 13.6894 23.5689V16.962C13.6894 16.4544 13.4801 15.9874 13.2595 15.5462H16.2593C16.1918 15.4534 16.1241 15.3568 16.0566 15.2465C16.0023 15.1594 15.9433 15.0782 15.8812 15.0024C15.6415 14.7016 15.3436 14.501 14.9532 14.501C14.4106 14.501 14.1211 14.8819 14.0576 15.2465C13.8003 15.0617 13.8945 14.6142 14.3379 14.3082C14.4593 14.2256 14.7212 14.0918 14.7212 14.0918H14.717L15.8812 13.4151L16.3316 13.1551L15.8833 10.5955L15.8611 10.4476C15.8611 9.84648 16.8777 9.30581 17.9995 9.30581H18.0024H18.0052H18.0062Z" fill="#231F20"/>
</g>
<defs>
<clipPath id="clip0_1001_5484">
<rect width="31" height="31" fill="white" transform="translate(2.5 2.5)"/>
</clipPath>
</defs>
</svg>
