<svg width="36" height="36" viewBox="0 0 36 36" fill="none" xmlns="http://www.w3.org/2000/svg">
<rect width="36" height="36" fill="#3E3E3E"/>
<rect width="284" height="476" transform="translate(-100 -60)" fill="white"/>
<path d="M26.3398 2.97852H9.33984C5.47385 2.97852 2.33984 6.11252 2.33984 9.97852V26.9785C2.33984 30.8445 5.47385 33.9785 9.33984 33.9785H26.3398C30.2058 33.9785 33.3398 30.8445 33.3398 26.9785V9.97852C33.3398 6.11252 30.2058 2.97852 26.3398 2.97852Z" fill="#8B3FFD"/>
<path d="M14.0998 14.0386V24.3584H11.5798L8.33984 14.0386H14.0998ZM21.2198 21.7185C20.6953 21.7185 20.1826 21.5629 19.7465 21.2712C19.3105 20.9796 18.9709 20.5651 18.7706 20.0803C18.5703 19.5955 18.5185 19.0622 18.6215 18.5479C18.7246 18.0335 18.978 17.5614 19.3496 17.1912C19.7212 16.821 20.1943 16.5694 20.709 16.4683C21.2237 16.3672 21.7569 16.4209 22.2409 16.6231C22.725 16.8252 23.1381 17.1664 23.4281 17.6035C23.7181 18.0406 23.8718 18.5541 23.8698 19.0786C23.8672 19.7797 23.5868 20.451 23.0901 20.9458C22.5935 21.4406 21.9209 21.7185 21.2198 21.7185ZM21.2198 11.9785C19.8165 11.9825 18.4457 12.4023 17.2808 13.1848C16.1158 13.9674 15.2089 15.0776 14.6746 16.3753C14.1403 17.6729 14.0025 19.0999 14.2787 20.4758C14.5549 21.8518 15.2327 23.115 16.2265 24.106C17.2202 25.0969 18.4853 25.7711 19.862 26.0435C21.2388 26.3158 22.6653 26.1742 23.9615 25.6362C25.2577 25.0983 26.3654 24.1882 27.1447 23.021C27.9239 21.8539 28.3398 20.482 28.3398 19.0786C28.3385 18.1449 28.1533 17.2205 27.7948 16.3584C27.4363 15.4963 26.9115 14.7133 26.2503 14.054C25.5891 13.3947 24.8046 12.872 23.9415 12.5159C23.0784 12.1598 22.1535 11.9772 21.2198 11.9785Z" fill="white"/>
</svg>
