<svg width="38" height="41" viewBox="0 0 38 41" fill="none" xmlns="http://www.w3.org/2000/svg">
<g id="Frame 1173">
<g id="Layer 2">
<g id="&#208;&#161;&#208;&#187;&#208;&#190;&#208;&#185; 1">
<path id="Vector" d="M29.4279 22.0023C29.428 21.3559 29.2456 20.7225 28.9018 20.1751C28.558 19.6276 28.0668 19.1882 27.4845 18.9075C26.9022 18.6267 26.2525 18.5158 25.6101 18.5877C24.9677 18.6596 24.3585 18.9113 23.8527 19.3138C23.3469 19.7163 22.9649 20.2534 22.7506 20.8633C22.5363 21.4732 22.4984 22.1312 22.6413 22.7616C22.7842 23.3921 23.102 23.9694 23.5583 24.4274C24.0146 24.8853 24.5908 25.2052 25.2208 25.3503L25.2208 34.6328C21.7506 36.0472 17.9105 36.2759 14.297 35.2835C10.6834 34.2911 7.49881 32.1331 5.2378 29.1447C5.17744 29.0616 5.10112 28.9914 5.01329 28.9381C4.92546 28.8849 4.82789 28.8497 4.72629 28.8346C4.6247 28.8196 4.52112 28.8249 4.42161 28.8504C4.32211 28.8758 4.22868 28.9209 4.14681 28.9829C4.06493 29.0449 3.99624 29.1226 3.94477 29.2115C3.8933 29.3004 3.86008 29.3986 3.84706 29.5005C3.83403 29.6024 3.84146 29.7058 3.86891 29.8048C3.89635 29.9038 3.94327 29.9963 4.00691 30.0769C7.54529 34.7543 12.9349 37.4343 18.7923 37.4343C21.3807 37.4398 23.9411 36.8993 26.3064 35.8481C26.4427 35.7872 26.5584 35.6881 26.6396 35.5629C26.7209 35.4377 26.7642 35.2917 26.7643 35.1424L26.7643 25.3503C27.5205 25.1739 28.1951 24.7473 28.6785 24.1397C29.162 23.532 29.426 22.7788 29.4279 22.0023ZM27.8844 22.0023C27.8844 22.3766 27.7734 22.7425 27.5654 23.0537C27.3575 23.3649 27.0619 23.6074 26.7161 23.7506C26.3703 23.8938 25.9898 23.9313 25.6227 23.8582C25.2556 23.7851 24.9184 23.6048 24.6538 23.3401C24.3892 23.0753 24.209 22.7381 24.1361 22.371C24.0632 22.0039 24.1008 21.6234 24.2441 21.2776C24.3875 20.9318 24.6301 20.6364 24.9414 20.4285C25.2527 20.2207 25.6187 20.1099 25.993 20.11C26.4945 20.1107 26.9754 20.3103 27.33 20.665C27.6846 21.0198 27.884 21.5007 27.8844 22.0023Z" fill="#1F1F1F"/>
<path id="Vector_2" d="M11.5474 18.554C11.3577 17.7316 10.872 17.0078 10.1829 16.5206C9.49376 16.0334 8.64943 15.8169 7.8109 15.9124C6.97236 16.0078 6.19829 16.4086 5.63629 17.0382C5.07429 17.6678 4.76367 18.4822 4.76367 19.3261C4.76367 20.1701 5.07429 20.9845 5.63629 21.6141C6.19829 22.2437 6.97236 22.6444 7.8109 22.7399C8.64943 22.8353 9.49376 22.6188 10.1829 22.1316C10.872 21.6445 11.3577 20.9207 11.5474 20.0983L19.1961 20.0983C19.3062 20.0982 19.415 20.0746 19.5152 20.029C19.6154 19.9835 19.7047 19.917 19.7771 19.8341L23.6855 15.3569C24.4318 15.7571 25.2993 15.8685 26.1225 15.6699C26.9457 15.4712 27.6669 14.9765 28.1486 14.2801C28.6303 13.5837 28.8388 12.7343 28.7342 11.8939C28.6296 11.0536 28.2194 10.2812 27.5817 9.72409C26.944 9.16695 26.1235 8.86407 25.2767 8.87325C24.43 8.88243 23.6163 9.20301 22.9908 9.77384C22.3653 10.3447 21.9719 11.1258 21.8856 11.9682C21.7993 12.8106 22.0261 13.6552 22.5228 14.3411L18.8449 18.554L11.5474 18.554ZM10.0917 19.3253C10.0926 19.6998 9.98249 20.0661 9.77515 20.3779C9.56782 20.6898 9.27263 20.9331 8.92695 21.0771C8.58126 21.221 8.20064 21.2592 7.83325 21.1868C7.46586 21.1143 7.12823 20.9345 6.86309 20.67C6.59796 20.4056 6.41725 20.0684 6.34383 19.7012C6.27042 19.334 6.30761 18.9533 6.45068 18.6072C6.59376 18.2612 6.83629 17.9654 7.14758 17.7572C7.45887 17.5491 7.82492 17.438 8.19938 17.438C8.7002 17.4386 9.18038 17.6375 9.53497 17.9912C9.88956 18.3448 10.0897 18.8245 10.0917 19.3253ZM23.4106 12.329C23.4106 11.9547 23.5216 11.5889 23.7295 11.2777C23.9375 10.9665 24.233 10.724 24.5788 10.5807C24.9245 10.4375 25.305 10.4 25.6721 10.4731C26.0391 10.5461 26.3763 10.7263 26.641 10.9909C26.9056 11.2556 27.0858 11.5927 27.1588 11.9598C27.2318 12.3269 27.1944 12.7074 27.0512 13.0531C26.9079 13.3989 26.6654 13.6944 26.3542 13.9023C26.043 14.1103 25.6772 14.2213 25.3029 14.2213C24.8014 14.2206 24.3206 14.0211 23.9659 13.6666C23.6112 13.312 23.4115 12.8313 23.4106 12.3298L23.4106 12.329Z" fill="#1F1F1F"/>
<path id="Vector_3" d="M16.0225 30.0023C16.6692 30.0026 17.3029 29.8205 17.8507 29.4768C18.3985 29.1331 18.8382 28.6419 19.1193 28.0595C19.4004 27.4771 19.5114 26.8272 19.4397 26.1845C19.368 25.5418 19.1164 24.9324 18.7138 24.4263C18.3112 23.9202 17.774 23.538 17.164 23.3235C16.5539 23.1091 15.8957 23.0711 15.265 23.214C14.6343 23.3569 14.0567 23.6748 13.5986 24.1313C13.1405 24.5877 12.8205 25.1641 12.6753 25.7943L3.25908 25.7943C2.29345 23.6249 1.79736 21.2759 1.80336 18.9014C1.81054 15.6642 2.73874 12.4959 4.47951 9.76664C6.22027 7.03735 8.70174 4.85976 11.634 3.48825C11.8026 3.39231 11.929 3.23642 11.9879 3.05157C12.0468 2.86673 12.034 2.66649 11.952 2.49067C11.8699 2.31485 11.7247 2.17635 11.5453 2.10271C11.3658 2.02907 11.1651 2.02569 10.9833 2.09325C7.78514 3.5888 5.07857 5.96349 3.17972 8.93992C1.28087 11.9164 0.268142 15.3716 0.259829 18.9022C0.252479 21.6701 0.871327 24.4039 2.07005 26.8988C2.13309 27.03 2.2318 27.1407 2.35487 27.2184C2.47794 27.296 2.62039 27.3374 2.76591 27.3378L12.6753 27.3378C12.8515 28.0941 13.2779 28.7687 13.8855 29.2523C14.493 29.7359 15.246 30.0002 16.0225 30.0023ZM14.1278 26.5657C14.1278 26.1914 14.2388 25.8255 14.4467 25.5143C14.6547 25.2031 14.9503 24.9606 15.2961 24.8174C15.6419 24.6742 16.0224 24.6367 16.3895 24.7098C16.7566 24.7829 17.0938 24.9632 17.3584 25.2279C17.623 25.4926 17.8032 25.8299 17.8761 26.197C17.949 26.5641 17.9114 26.9446 17.7681 27.2904C17.6247 27.6361 17.382 27.9316 17.0708 28.1394C16.7595 28.3473 16.3935 28.4581 16.0192 28.458C15.5177 28.4573 15.0368 28.2577 14.6822 27.9029C14.3276 27.5482 14.1282 27.0673 14.1278 26.5657Z" fill="#1F1F1F"/>
<path id="Vector_4" d="M18.7923 0.369144C17.2805 0.36836 15.7742 0.552164 14.3069 0.916476C14.1389 0.957162 13.9895 1.05316 13.8826 1.18905C13.7758 1.32493 13.7177 1.4928 13.7178 1.66567L13.7178 8.98533C12.8953 9.1749 12.1715 9.66056 11.6842 10.3497C11.1969 11.0388 10.9803 11.8831 11.0757 12.7217C11.1711 13.5603 11.5719 14.3344 12.2015 14.8964C12.8311 15.4585 13.6455 15.7691 14.4895 15.7691C15.3335 15.7691 16.148 15.4585 16.7776 14.8964C17.4072 14.3344 17.8079 13.5603 17.9033 12.7217C17.9987 11.8831 17.7821 11.0388 17.2948 10.3497C16.8076 9.66056 16.0837 9.17491 15.2613 8.98533L15.2613 2.27947C16.4216 2.03556 17.6041 1.91264 18.7898 1.91267C28.1577 1.91267 35.776 9.5343 35.776 18.8989C35.7758 21.6665 35.0997 24.3922 33.8065 26.839C32.5133 29.2859 30.642 31.3799 28.3554 32.9391C28.2696 32.9954 28.1958 33.0682 28.1384 33.1533C28.081 33.2384 28.0412 33.3341 28.0212 33.4348C28.0012 33.5354 28.0015 33.6391 28.022 33.7396C28.0426 33.8402 28.083 33.9357 28.1409 34.0204C28.1988 34.1052 28.2729 34.1776 28.3591 34.2333C28.4453 34.2891 28.5417 34.3271 28.6428 34.3452C28.7438 34.3632 28.8474 34.361 28.9476 34.3385C29.0477 34.316 29.1424 34.2738 29.2261 34.2143C31.7202 32.5135 33.7612 30.2292 35.1717 27.5601C36.5822 24.891 37.3195 21.9178 37.3195 18.8989C37.3245 8.68253 29.0111 0.369145 18.7923 0.369144ZM16.3855 12.3292C16.3855 12.7035 16.2745 13.0693 16.0666 13.3805C15.8587 13.6917 15.5631 13.9342 15.2174 14.0775C14.8716 14.2207 14.4911 14.2582 14.1241 14.1851C13.757 14.1121 13.4198 13.9319 13.1552 13.6673C12.8905 13.4026 12.7103 13.0655 12.6373 12.6984C12.5643 12.3313 12.6018 11.9509 12.745 11.6051C12.8882 11.2593 13.1307 10.9638 13.4419 10.7559C13.7531 10.5479 14.119 10.4369 14.4932 10.4369C14.9949 10.4376 15.4758 10.6372 15.8305 10.9919C16.1853 11.3466 16.3848 11.8276 16.3855 12.3292Z" fill="#1F1F1F"/>
</g>
</g>
</g>
</svg>
