<svg width="53" height="27" viewBox="0 0 53 27" fill="none" xmlns="http://www.w3.org/2000/svg">
<g id="cdn.worldvectorlogo.com_logos_sbp.svg-0 2" clip-path="url(#clip0_860_4941)">
<g id="Group 533">
<path id="Vector" d="M46.3949 10.6313V17.2324H44.0599V12.6019H41.8116V17.2324H39.4766V10.6309H46.3949V10.6313Z" fill="#1A1A1A"/>
<path id="Vector_2" fill-rule="evenodd" clip-rule="evenodd" d="M34.6811 17.4675C36.7716 17.4675 38.3239 16.1738 38.3239 14.2127C38.3239 12.3144 37.1786 11.0818 35.2647 11.0818C34.3813 11.0818 33.6525 11.3957 33.1035 11.9373C33.2346 10.8179 34.1723 10.0007 35.2047 10.0007C35.443 10.0007 37.2368 9.99686 37.2368 9.99686L38.251 8.03711C38.251 8.03711 35.9991 8.08886 34.9522 8.08886C32.5601 8.13116 30.9443 10.326 30.9443 12.9916C30.9443 16.0975 32.5202 17.4678 34.6814 17.4678L34.6811 17.4675ZM34.6941 12.8175C35.4702 12.8175 36.0082 13.3323 36.0082 14.2125C36.0082 15.0045 35.5301 15.6574 34.6941 15.6592C33.8943 15.6592 33.3563 15.0544 33.3563 14.226C33.3563 13.3455 33.8943 12.8175 34.6941 12.8175Z" fill="#1A1A1A"/>
<path id="Vector_3" d="M29.0434 15.021C29.0434 15.021 28.4919 15.3419 27.6681 15.4026C26.7215 15.431 25.8779 14.8273 25.8779 13.7547C25.8779 12.7085 26.6223 12.1088 27.6445 12.1088C28.2713 12.1088 29.1004 12.5474 29.1004 12.5474C29.1004 12.5474 29.7072 11.4235 30.0214 10.8614C29.4459 10.4211 28.6794 10.1797 27.7878 10.1797C25.5377 10.1797 23.7949 11.6606 23.7949 13.7414C23.7949 15.8488 25.433 17.2953 27.7878 17.2514C28.446 17.2267 29.3541 16.9936 29.9075 16.6347L29.0434 15.021Z" fill="#1A1A1A"/>
</g>
<path id="Vector_4" d="M0.331055 5.87695L3.57013 11.7213V15.2862L0.334844 21.1191L0.331055 5.87695Z" fill="#5B57A2"/>
<path id="Vector_5" d="M12.7676 9.59464L15.8027 7.71679L22.0143 7.71094L12.7676 13.4291V9.59464Z" fill="#D90751"/>
<path id="Vector_6" d="M12.751 5.84257L12.7681 13.5803L9.52148 11.5666V0L12.751 5.84257Z" fill="#FAB718"/>
<path id="Vector_7" d="M22.0148 7.71097L15.803 7.71682L12.751 5.84257L9.52148 0L22.0148 7.71097Z" fill="#ED6F26"/>
<path id="Vector_8" d="M12.7681 21.1515V17.3974L9.52148 15.4219L9.52327 26.9999L12.7681 21.1515Z" fill="#63B22F"/>
<path id="Vector_9" d="M15.7954 19.2908L3.56991 11.7213L0.331055 5.87695L22.0014 19.2831L15.7954 19.2908Z" fill="#1487C9"/>
<path id="Vector_10" d="M9.52344 27L12.7679 21.1516L15.7954 19.2909L22.0014 19.2832L9.52344 27Z" fill="#017F36"/>
<path id="Vector_11" d="M0.334961 21.1193L9.54779 15.4223L6.45047 13.5039L3.57025 15.2864L0.334961 21.1193Z" fill="#984995"/>
</g>
<defs>
<clipPath id="clip0_860_4941">
<rect width="52" height="27" fill="white" transform="translate(0.331055)"/>
</clipPath>
</defs>
</svg>
