      <svg xmlns="http://www.w3.org/2000/svg"  style="display: none;">
        <symbol id="tinkoff" viewBox="0 0 32 32" fill="none">
        <g clip-path="url(#clip0_857_4802)">
          <path d="M24.6111 0.5H7.38889C3.58426 0.5 0.5 3.58426 0.5 7.38889V24.6111C0.5 28.4157 3.58426 31.5 7.38889 31.5H24.6111C28.4157 31.5 31.5 28.4157 31.5 24.6111V7.38889C31.5 3.58426 28.4157 0.5 24.6111 0.5Z" fill="#FFDD2D"/>
          <path fill-rule="evenodd" clip-rule="evenodd" d="M29.0782 14.1682L27.9557 14.2037C27.8603 14.2037 27.1708 14.1841 26.5016 13.701C26.5517 13.7056 26.6015 13.7129 26.6526 13.7129C27.341 13.7129 28.0082 13.3005 28.275 12.7096L28.7579 11.643C28.1518 11.6511 27.5983 11.5748 27.5983 11.5748C27.5938 11.5745 27.1571 11.5183 26.6523 11.005C26.2904 10.6372 25.8422 10.4422 25.3572 10.4422C25.1447 10.4422 24.955 10.4805 24.7913 10.5321C24.8171 10.4457 24.8407 10.3579 24.8548 10.2676C25.0095 9.26916 24.3645 8.50821 24.3641 8.50892L23.519 7.46763L22.9955 8.69091C22.9938 8.69442 22.8612 8.98145 22.6249 9.12091C22.5539 8.76152 22.3782 8.35716 22.0033 7.97141C21.2965 7.24348 20.4366 7.13457 19.9866 7.13457C19.7784 7.13457 19.6294 7.15706 19.5931 7.16304L18.5735 7.36223C18.6324 7.13598 18.7581 6.74075 18.9868 6.38523L19.5497 5.51325L18.1337 5.67345L17.6829 4.72034L16.8096 5.16827L16.0023 4.375L15.1971 5.16827L14.322 4.72034L13.8719 5.67345L12.4564 5.51291L13.0201 6.38557C13.2492 6.74075 13.3742 7.13493 13.4325 7.36118L12.4596 7.17041L12.426 7.16479C12.3777 7.15706 12.2298 7.13457 12.0201 7.13457C11.5704 7.13457 10.7101 7.24348 10.0052 7.97105C9.62993 8.35679 9.45378 8.76152 9.38214 9.12091C9.14738 8.9825 9.01572 8.70038 9.01572 8.70038L8.49116 7.47007L7.63338 8.5177C7.52818 8.6526 7.01174 9.36824 7.15188 10.2687C7.16634 10.3586 7.19001 10.4457 7.21541 10.5321C7.05268 10.4798 6.86277 10.4422 6.65061 10.4422C6.16523 10.4422 5.71728 10.6372 5.35439 11.005C4.85102 11.5162 4.50851 11.5521 4.42107 11.5738C4.33363 11.5955 3.96182 11.656 3.25122 11.643L3.73201 12.7096C3.99888 13.3005 4.6664 13.7129 5.35369 13.7129C5.40558 13.7129 5.45501 13.7056 5.50583 13.701C4.83797 14.1841 4.14855 14.2037 4.06524 14.2041L2.92188 14.1682L3.26816 15.2496C3.44255 15.8068 4.02535 16.7297 5.14048 16.8291C5.01904 17.335 4.75007 17.9024 4.15914 18.1469L3.30734 18.496L3.77189 19.3013C4.03383 19.7355 4.65016 20.2436 5.52667 20.2436C5.71587 20.2429 5.89872 20.2239 6.07523 20.1866C6.1204 20.3851 6.17653 20.584 6.24325 20.7814C6.50411 21.5547 6.27926 22.0936 6.27678 22.0996L5.85601 22.9764L6.795 23.2227C6.80664 23.2263 7.09045 23.3038 7.44557 23.3038C7.60654 23.3038 7.76115 23.2872 7.90483 23.253C8.0139 23.2276 8.11909 23.1939 8.21971 23.1531C8.34148 23.3699 8.48904 23.568 8.66096 23.7454C9.26282 24.3598 10.1157 24.6712 11.1955 24.6712H11.199L11.97 24.6612L10.3772 25.3207L11.5866 25.9024C12.0265 26.1155 12.5468 26.3673 13.0777 26.5602L12.9262 26.9716L13.3435 27.1605C13.3806 27.1774 14.1822 27.5341 15.5145 27.6102C15.5145 27.6102 15.8364 27.625 16.0136 27.625C16.1904 27.625 16.5081 27.6092 16.5081 27.6092C17.8323 27.5311 18.6276 27.1774 18.6646 27.1605L19.0826 26.9709L18.93 26.5591C19.4754 26.3605 20.0159 26.0986 20.4373 25.8937L21.6237 25.32L20.0364 24.6612L20.8105 24.6712C21.8921 24.6712 22.7449 24.3595 23.3458 23.7443C23.517 23.5683 23.6642 23.3709 23.7867 23.1531C23.8876 23.1939 23.9935 23.2276 24.1029 23.2537C24.2467 23.2872 24.4005 23.3038 24.5615 23.3038C24.9106 23.3038 25.1972 23.2273 25.2049 23.2247L26.1479 22.9764L25.7369 22.1156C25.7275 22.0936 25.5025 21.5547 25.7638 20.7807C25.8298 20.5832 25.8856 20.3844 25.9312 20.1866C26.1084 20.2239 26.2934 20.2429 26.4842 20.2436C27.6009 20.2436 28.136 19.4622 28.2393 19.2922L28.6997 18.4953L27.8479 18.1476C27.2556 17.9024 26.9873 17.3353 26.8672 16.8298C27.9679 16.7343 28.5584 15.8106 28.7389 15.2499L29.0782 14.1682Z" fill="#FEFEFE"/>
          <path fill-rule="evenodd" clip-rule="evenodd" d="M17.8628 7.00916C17.3491 6.7246 16.683 6.56264 16.0024 6.56264C15.3254 6.56264 14.6592 6.7246 14.1442 7.00916C14.0973 6.85282 14.0319 6.66277 13.943 6.46392L14.1365 6.48676L14.3398 6.50818L14.4273 6.32339L14.6836 5.77849L15.1587 6.02336L15.343 6.11646L15.4895 5.97243L16.0024 5.46619L16.5164 5.97243L16.6636 6.11646L16.8478 6.02336L17.3205 5.77849L17.5803 6.32339L17.6661 6.50818L17.8698 6.48676L18.0639 6.46392C17.9749 6.66277 17.9089 6.85282 17.8628 7.00916ZM16.0024 7.68622C15.1001 7.68727 14.4238 7.98132 14.2766 8.32737L16.0024 9.00575L17.7286 8.32737C17.5828 7.98132 16.9061 7.68727 16.0024 7.68622ZM16.0207 25.6294H16.0189H16.0041H15.9871H15.9857C15.4396 25.6329 14.686 25.5211 14.3238 25.416L13.8875 26.5909C14.1748 26.6927 15.1498 26.8885 16.0041 26.8885C16.8566 26.8885 17.8319 26.6927 18.1189 26.5909L17.6833 25.416C17.3197 25.5211 16.5671 25.6329 16.0207 25.6294ZM17.8511 25.0454C18.2727 24.9178 18.9979 24.6431 19.3227 24.4602L19.1059 25.1661L19.8407 25.4093C19.3964 25.6313 18.8579 25.8385 18.2052 26.0159L17.8511 25.0454ZM12.6837 24.4602L12.9011 25.1661L12.1655 25.4093C12.6096 25.6313 13.1503 25.8385 13.8005 26.0159L14.1552 25.0454C13.7345 24.9178 13.0084 24.6431 12.6837 24.4602ZM26.3855 12.8654C26.4742 12.8959 26.5638 12.9093 26.6528 12.9093C27.0379 12.9093 27.4092 12.6616 27.5375 12.3784C27.5375 12.3784 26.8321 12.3359 26.0731 11.5697C25.832 11.3213 25.5761 11.2472 25.357 11.2472C25.0164 11.2472 24.7608 11.4257 24.7608 11.4257C25.2554 11.6878 25.5375 12.0354 25.7745 12.3274C25.9763 12.5763 26.1455 12.7847 26.3855 12.8654ZM5.61832 12.8654C5.5322 12.8959 5.44218 12.9093 5.35322 12.9093C4.96844 12.9093 4.59603 12.6616 4.46931 12.3788C4.46931 12.3788 5.17425 12.3359 5.93215 11.5697C6.17465 11.321 6.42987 11.2472 6.65049 11.2472C6.98902 11.2472 7.24531 11.426 7.24531 11.426C6.75201 11.6876 6.46969 12.0345 6.2323 12.3262C6.02935 12.5756 5.85926 12.7846 5.61832 12.8654ZM26.1095 18.4579C25.4003 18.1102 24.953 17.1869 24.8447 16.8546C24.7269 18.6849 23.8291 19.9556 22.7792 21.1788C22.2343 21.813 22.0443 22.4295 22.0443 22.4295C22.0443 22.4295 22.1496 21.7308 22.6204 21.1623C23.6 19.9914 24.5309 18.5335 24.6001 16.8475C24.6473 15.671 24.3438 14.7171 23.8694 13.9305C24.1348 14.7495 24.097 15.7521 23.1961 16.6884C23.1961 16.6884 24.9902 14.5492 22.4825 12.356C21.77 11.7634 21.0094 11.3317 20.426 11.0005C20.1876 10.8652 19.9787 10.7467 19.8147 10.6408C21.8573 11.3041 22.8548 10.5741 22.8548 10.5741C22.2028 11.1366 21.358 11.1271 20.8346 11.0459C20.9769 11.1148 21.1245 11.1868 21.2833 11.2718C23.0055 12.2028 24.5534 13.7349 24.8175 15.8565V15.8403C25.2182 17.9237 26.1095 18.4579 26.1095 18.4579ZM26.6337 16.0307C26.6499 16.0318 26.6633 16.0318 26.6795 16.0318C27.6397 16.0318 27.9648 15.0084 27.9648 15.0084H27.9462C27.77 15.0084 26.3425 14.9669 25.3336 13.691C25.3054 13.6553 25.2773 13.6198 25.2496 13.5845C24.6223 12.7894 24.0793 12.1009 23.0501 11.823L22.9442 11.8047L22.9215 11.6972C22.8915 11.5342 23.0045 11.3807 23.2597 11.2156C24.7434 10.2488 23.7356 9.01531 23.7356 9.01531C23.7356 9.01531 23.3119 10.0018 22.3641 10.0018C22.3528 10.0018 22.3412 10.0015 22.3295 10.0011C22.3178 10.0007 22.3058 10.0004 22.2939 10.0004L22.2729 9.99932C22.1726 9.99415 22.0753 9.98914 21.9777 9.96878L21.8032 9.9347C21.8032 9.9347 22.0733 9.20291 21.4209 8.53155C20.9295 8.0246 20.3319 7.93852 19.9866 7.93852C19.813 7.93852 19.7025 7.96067 19.7025 7.96067C20.0302 8.3868 20.267 9.09436 19.889 9.53104C19.7622 9.67611 19.565 9.76778 19.3708 9.85804C19.063 10.001 18.7628 10.1405 18.7628 10.4831C18.7628 10.7202 18.9857 10.9964 19.3845 11.2444C20.5851 11.9966 21.7767 12.9953 22.2727 14.3332C22.8915 16.0019 22.194 17.1096 21.1985 17.7451C21.1985 17.7451 21.511 18.0311 21.9636 18.0677C22.0557 18.0764 22.1456 18.0809 22.2296 18.0809C23.1856 18.0809 23.6801 17.6345 23.6801 17.6345C23.6801 17.6345 23.5986 18.2511 23.1013 18.8234C22.6419 19.3517 22.0397 19.6633 21.1205 19.6759C21.1205 19.6759 21.0916 20.1007 21.4982 20.4681C21.7591 20.7001 22.3604 20.7752 22.3604 20.7752C22.3604 20.7752 21.2342 21.0025 21.11 22.6575C21.0425 23.5545 20.8121 23.8664 20.8121 23.8664H20.8321C23.4454 23.8664 23.3787 21.6359 23.3787 21.6359C23.3787 21.6359 23.5601 22.2961 24.2894 22.4686C24.3773 22.491 24.4713 22.5001 24.5608 22.5001C24.7952 22.5001 24.9993 22.4454 24.9993 22.4454C24.9993 22.4454 24.6173 21.644 24.9966 20.523C25.3104 19.5927 25.2599 18.9038 25.2599 18.9038C25.2599 18.9038 25.6117 19.4332 26.4844 19.4382H26.4935C27.2203 19.4382 27.537 18.8897 27.537 18.8897C25.7946 18.1698 25.9669 15.847 25.9669 15.847C25.9669 15.847 26.1932 16.0149 26.6337 16.0307ZM7.16068 16.8542C7.27929 18.6849 8.17696 19.9556 9.22643 21.1785C9.77112 21.813 9.96349 22.4292 9.96349 22.4292C9.96349 22.4292 9.85688 21.7305 9.38388 21.1628C8.40641 19.9914 7.47555 18.5332 7.40708 16.8475C7.35801 15.6706 7.66193 14.7168 8.13707 13.9306C7.87197 14.7498 7.90833 15.7521 8.81024 16.6888C8.81024 16.6888 7.01594 14.5493 9.52506 12.356C10.237 11.7636 10.9964 11.3323 11.5793 11.0012C11.8178 10.8657 12.0268 10.747 12.1909 10.6409C10.1492 11.3042 9.1516 10.5738 9.1516 10.5738C9.80324 11.1366 10.6476 11.1271 11.1718 11.0459L11.1598 11.0518C11.0215 11.1189 10.8765 11.1892 10.7231 11.2722C9.00017 12.2028 7.45332 13.7352 7.18822 15.8565V15.84C6.78826 17.9233 5.89729 18.4579 5.89729 18.4579C6.60576 18.1102 7.0523 17.1866 7.16068 16.8542ZM10.5089 20.4679C10.248 20.7001 9.64617 20.7752 9.64617 20.7752C9.64617 20.7752 10.7733 21.0021 10.8972 22.6575C10.9646 23.5545 11.193 23.866 11.193 23.866H11.1747C8.56069 23.866 8.62777 21.6356 8.62777 21.6356C8.62777 21.6356 8.44527 22.2961 7.71702 22.4686C7.62983 22.491 7.53664 22.5001 7.44557 22.5001C7.21117 22.5001 7.00819 22.4454 7.00819 22.4454C7.00819 22.4454 7.38803 21.6444 7.00926 20.523C6.69614 19.5927 6.74698 18.9034 6.74698 18.9034C6.74698 18.9034 6.39539 19.4332 5.52207 19.4385H5.51325C4.78677 19.4385 4.46943 18.8897 4.46943 18.8897C6.21077 18.17 6.04027 15.847 6.04027 15.847C6.04027 15.847 5.814 16.0149 5.37239 16.0307C5.35617 16.0318 5.34168 16.0318 5.32651 16.0318C4.36599 16.0318 4.04053 15.0084 4.04053 15.0084H4.05994C4.23715 15.0084 5.66327 14.967 6.67179 13.691C6.70022 13.6551 6.72843 13.6193 6.75647 13.5838C7.38372 12.7894 7.92712 12.1011 8.95429 11.823L9.0623 11.8044L9.08526 11.6973C9.11526 11.5343 9.00265 11.3804 8.74779 11.2156C7.26413 10.2488 8.27158 9.01569 8.27158 9.01569C8.27158 9.01569 8.69271 10.0018 9.64335 10.0018C9.65464 10.0018 9.66567 10.0016 9.67688 10.0013C9.68843 10.001 9.70018 10.0008 9.71253 10.0008L9.74012 9.99926C9.8376 9.99394 9.93364 9.98871 10.0288 9.9688L10.2039 9.93473C10.2039 9.93473 9.93246 9.20294 10.5862 8.53157C11.0772 8.02463 11.6752 7.93821 12.0197 7.93821C12.1945 7.93821 12.3036 7.96069 12.3036 7.96069C11.9767 8.38683 11.7398 9.09437 12.1179 9.53072C12.2444 9.67597 12.4416 9.76773 12.6356 9.85808C12.9429 10.0011 13.2425 10.1406 13.2425 10.4831C13.2425 10.7199 13.0201 10.9964 12.6213 11.2444C11.4207 11.9966 10.2293 12.9957 9.73371 14.3332C9.11526 16.0023 9.81278 17.11 10.8093 17.7451C10.8093 17.7451 10.4966 18.0311 10.0429 18.0677C9.95082 18.0764 9.86185 18.0807 9.77608 18.0807C8.82121 18.0807 8.32666 17.6345 8.32666 17.6345C8.32666 17.6345 8.40891 18.2511 8.9031 18.8237C9.36517 19.3517 9.96704 19.6633 10.8863 19.676C10.8863 19.676 10.9152 20.1007 10.5089 20.4679ZM15.4127 12.5555H16.0293H16.6442V12.9759C16.4998 12.7996 16.2174 12.8358 16.2174 12.8358V13.4417C16.2174 13.4417 16.2284 13.7403 16.3332 13.8692H16.0293H15.7237C15.8302 13.7403 15.8398 13.4417 15.8398 13.4417V12.8358C15.8398 12.8358 15.5585 12.7996 15.4127 12.9759V12.5555ZM14.0705 12.6188C14.1132 12.6645 14.1552 12.714 14.1961 12.7643L14.2017 12.771C14.2092 12.78 14.2164 12.7888 14.2244 12.7997C14.2618 12.8493 14.2996 12.902 14.3363 12.9561C14.341 12.9622 14.3455 12.9689 14.3503 12.976L14.3548 12.9827L14.3574 12.9864L14.359 12.9888L14.361 12.9916C14.4048 13.0572 14.4461 13.1254 14.487 13.1957C14.864 13.8431 15.4669 14.2306 16.0024 14.2313C16.5383 14.2306 17.1409 13.8431 17.5189 13.1957C17.5606 13.1237 17.6029 13.0537 17.6467 12.9884C17.6534 12.9793 17.6601 12.9698 17.6661 12.9599C17.7032 12.9041 17.7424 12.85 17.783 12.7973C17.7885 12.7901 17.7939 12.7833 17.7991 12.7768L17.8077 12.766C17.8497 12.714 17.8931 12.6641 17.9372 12.6171C17.9403 12.6141 17.9432 12.6112 17.946 12.6083C17.9501 12.6041 17.9541 12.6001 17.9584 12.5963C18.1504 12.401 18.3791 12.2517 18.6789 12.1691L18.5455 12.0918H18.5384L18.0078 11.7855L17.4628 11.4746L16.0067 12.2636L16.0024 12.2601L15.9996 12.2636L14.5431 11.4746L13.9985 11.7855L13.4668 12.0918H13.4608L13.3263 12.1691C13.6264 12.2517 13.8544 12.3992 14.0472 12.5949C14.0505 12.5981 14.0534 12.6014 14.0564 12.6047C14.0607 12.6096 14.065 12.6144 14.0705 12.6188ZM15.5383 10.2773V9.88181L14.8221 9.58182C14.8221 9.58182 14.8285 9.81154 15.1507 10.061C15.3252 10.1979 15.4334 10.2331 15.4572 10.2408C15.46 10.2418 15.4617 10.2423 15.4621 10.2426L15.5383 10.2773ZM15.8766 9.27626V11.7397L14.7166 11.1316L14.3011 8.74507L15.8766 9.27626ZM16.4676 9.88181L17.1838 9.58182C17.1838 9.58182 17.1778 9.81154 16.8544 10.061C16.6798 10.1986 16.5715 10.2334 16.5481 10.2409C16.5454 10.2418 16.5439 10.2423 16.5435 10.2426L16.4676 10.2773V9.88181ZM17.2892 11.1316L17.7033 8.74507L16.1289 9.27626V11.7397L17.2892 11.1316ZM14.0834 17.5156C13.9884 17.5156 13.8021 17.5043 13.6489 17.4488C13.4798 17.3867 13.2278 17.0779 13.2857 16.7379C13.3588 16.6932 13.5282 16.5984 13.6867 16.5984C13.8088 16.5984 13.8921 16.6553 13.9507 16.7779C14.0015 16.8843 14.0933 16.9549 14.1575 16.9953C14.1554 17.0948 14.1459 17.249 14.119 17.3856C14.113 17.4162 14.1053 17.4443 14.0972 17.472C14.094 17.4841 14.0904 17.4948 14.0872 17.504L14.0855 17.5092C14.0847 17.5114 14.084 17.5136 14.0834 17.5156ZM16.2858 16.994L16.2528 17.0262C16.2464 17.0324 16.2422 17.0365 16.2404 17.0384L16.2054 17.0728L14.3959 17.0443C14.3949 17.2228 14.3656 17.3746 14.3373 17.4856C14.3328 17.5042 14.3278 17.5235 14.3229 17.5428L16.4755 17.9278C16.6993 17.7723 17.3156 17.3243 17.5549 17.1487C17.3809 16.8961 17.3643 16.5957 17.4039 16.3842C17.2891 16.3118 17.2023 16.2296 17.1331 16.1425C16.8843 16.4123 16.4321 16.8519 16.2861 16.9937L16.2858 16.994ZM16.2045 14.5759C16.5617 14.5405 16.9613 14.388 17.3786 13.9766H20.0998C19.9813 14.2886 19.8831 14.6262 19.8831 14.962L19.8841 17.13C19.4288 17.0538 19.3747 16.5661 19.373 16.5451L19.3649 16.4453L19.2671 16.4369C19.0687 16.4182 18.9381 16.335 18.8272 16.2278C18.6042 16.0054 18.6038 15.6457 18.6042 15.6429C18.6042 15.6432 18.604 15.6436 18.6038 15.6441C18.6035 15.6449 18.603 15.6459 18.6025 15.6471C18.6011 15.65 18.5989 15.654 18.5959 15.6592C18.5555 15.7333 18.3884 16.0387 18.6402 16.3687C18.7582 16.524 18.93 16.6195 19.152 16.6575C19.2042 16.9276 19.4062 17.3099 19.8841 17.3678V18.4295H18.541C17.9218 18.0859 18.1845 17.4824 18.1962 17.4567L18.2487 17.3425L18.1301 17.2976C17.4594 17.0502 17.644 16.3845 17.6529 16.3553L17.68 16.2588L17.589 16.2159C17.0351 15.9601 17.1099 15.2723 17.1173 15.2434C16.9472 15.3808 16.8858 15.6612 17.003 15.9359C16.9431 16.0045 16.8635 16.0864 16.7757 16.1768L16.7754 16.177L16.7612 16.1917C16.1875 16.0458 16.1695 15.5213 16.1695 15.4978L16.1681 15.417L16.0929 15.3878C15.8691 15.3053 15.7152 15.1816 15.6397 15.0154C15.5546 14.8317 15.5846 14.6385 15.6079 14.5457C15.6736 14.5605 15.7385 14.5703 15.8014 14.5759C15.866 14.5826 15.9316 14.5865 15.9987 14.5865H16.0026H16.0075C16.0742 14.5865 16.1392 14.5826 16.2045 14.5759ZM13.7634 14.9701L13.7267 16.3503L13.8849 16.3742L14.2703 15.0499L14.0748 14.6424L13.7634 14.9701ZM14.5233 19.9967C14.5205 20.0417 14.5533 20.0796 14.5981 20.0806C14.6415 20.0845 14.6789 20.0511 14.6832 20.0072C14.6849 19.965 14.6528 19.9258 14.6077 19.924C14.5636 19.9201 14.5272 19.9542 14.5233 19.9967ZM18.052 21.3075C18.0395 21.3041 18.026 21.3028 18.0143 21.3028C17.9367 21.3028 17.9027 21.371 17.9027 21.371C17.9547 21.5099 17.9678 21.6096 17.9795 21.6998C17.9928 21.8004 18.0045 21.8896 18.0669 22.0088C18.1411 22.1509 18.2644 22.2709 18.34 22.3443C18.3538 22.3579 18.3662 22.3698 18.3762 22.3801C18.3762 22.3801 18.3584 22.5069 18.3402 22.6021L18.1721 23.471C18.0651 23.4856 17.9528 23.4933 17.8364 23.4987L18.0126 22.6629C18.0383 22.5422 17.8922 22.4617 17.6976 22.3546C17.4929 22.242 17.2343 22.0997 17.0648 21.8495C16.9031 22.0305 16.5991 22.0846 16.2934 22.0846C16.0146 22.0846 15.7361 22.04 15.5663 22.0065C15.5236 22.0003 15.4826 21.995 15.442 21.995C15.3442 21.995 15.2549 22.0251 15.1931 22.1281L15.1448 22.2099L14.2323 21.9957L14.0049 22.3706C13.9732 22.4309 13.9711 22.4819 14.0226 22.5385L14.084 22.6055C14.0417 22.7376 13.8518 22.9379 13.8518 22.9379L13.7162 22.7693C13.6089 22.6498 13.6265 22.4309 13.7377 22.2287L14.0999 21.6209L14.873 21.7315L14.7533 21.4592C14.6405 21.2076 14.7264 20.9083 14.7975 20.6608L14.7975 20.6606C14.8283 20.5535 14.8563 20.4562 14.8642 20.3765C14.8553 20.4562 14.7815 20.4745 14.6958 20.4745C14.6541 20.4745 14.6097 20.4702 14.5685 20.4662C14.533 20.4626 14.4999 20.4595 14.473 20.4595C14.4501 20.4595 14.4307 20.4619 14.4204 20.4693L14.2107 20.596L14.0459 20.451C14.0258 20.4233 14.0194 20.3572 14.0678 20.3083L14.4501 19.8815L13.9986 19.3562L14.6312 19.6724L14.8246 19.4396C14.8776 19.4909 14.8543 19.6264 14.8543 19.6264C15.0512 19.6314 15.6055 19.9356 15.6348 20.6474C15.6358 20.6691 15.6358 20.6934 15.6358 20.7173C15.6358 20.7173 15.6414 20.7257 15.651 20.7405C15.6902 20.7939 15.7982 20.9308 15.9348 20.9439L16.8095 21.0299H16.8127C16.8497 21.0299 16.9006 21.0133 16.9633 20.9928C17.0635 20.9603 17.1938 20.9179 17.3447 20.9179C17.4778 20.9179 17.626 20.9517 17.7846 21.0511C17.7846 21.0511 17.8643 20.9885 17.9931 20.9815C18.003 20.9808 18.0143 20.9808 18.0231 20.9808C18.3527 20.9808 18.5203 21.2298 18.6905 21.4828C18.7227 21.5309 18.7552 21.5791 18.7888 21.6258C18.9466 21.8495 19.1587 22.1808 19.1587 22.1808C19.0804 22.2726 19.0081 22.3241 18.8863 22.3241C18.8531 22.3241 18.815 22.3217 18.7733 22.3129C18.5315 22.2688 18.4087 21.9654 18.3023 21.7026C18.2238 21.5085 18.154 21.3364 18.052 21.3075ZM13.3521 22.0932C13.3521 22.0932 13.655 21.9692 13.6818 21.8813L13.6412 21.7804C13.6126 21.7151 13.6169 21.6442 13.6719 21.6054L13.9984 21.381L14.5437 21.4854C14.5437 21.4854 14.4453 21.3624 14.4548 21.198L13.9338 21.0884L13.4432 21.3857C13.2325 21.5426 13.2173 21.7987 13.2868 21.9507L13.3521 22.0932ZM17.5353 23.5037C17.4171 23.5037 17.3088 23.5051 17.2113 23.5094L17.4676 22.7151C17.4945 22.6414 17.4112 22.553 17.3284 22.4652C17.2885 22.4228 17.2488 22.3806 17.2216 22.3403C17.3479 22.419 17.6744 22.5918 17.8318 22.661C17.8159 22.6867 17.5353 23.5037 17.5353 23.5037Z" fill="white"/>
          <path fill-rule="evenodd" clip-rule="evenodd" d="M18.1596 18.4297H12.1229V14.9622C12.1229 14.6263 12.0241 14.2887 11.9072 13.9767H14.6278C14.8866 14.2325 15.1396 14.392 15.3808 14.4795C15.3497 14.6028 15.308 14.8575 15.4242 15.1118C15.5191 15.3167 15.6907 15.4744 15.9396 15.5798C15.966 15.8327 16.1277 16.2136 16.5721 16.3818C16.3769 16.5775 16.1877 16.762 16.1111 16.8361L14.3052 16.8076C14.2642 16.7873 14.1943 16.7412 14.1633 16.6766C14.1614 16.6717 14.1588 16.668 14.1563 16.6642C14.1541 16.6609 14.1518 16.6576 14.1498 16.6534L14.4446 16.7008C14.4509 16.7015 14.4573 16.7015 14.4637 16.7015C14.5205 16.7015 14.5703 16.6626 14.5794 16.6046C14.589 16.5392 14.5456 16.4795 14.482 16.47L14.1191 16.4131L14.5215 15.0303L14.1403 14.2325L13.53 14.8747L13.4929 16.3123L13.0827 16.2477C13.0192 16.2354 12.9588 16.281 12.9475 16.345C12.938 16.4082 12.981 16.4683 13.0453 16.4795L13.2176 16.5055C13.1561 16.5403 13.1156 16.5681 13.1106 16.5719L13.0757 16.5961L13.0661 16.639C12.9662 17.0423 13.1918 17.4253 13.4361 17.5963L13.4269 17.6473C13.417 17.7091 13.4315 17.7696 13.4689 17.8205C13.5046 17.8722 13.5582 17.903 13.62 17.9139C13.6323 17.9165 13.6458 17.9175 13.6581 17.9175C13.7633 17.9175 13.8558 17.8446 13.8812 17.7379C13.9723 17.7492 14.0556 17.751 14.1124 17.751H14.1601L16.5294 18.1774L16.57 18.1507C16.7582 18.0196 17.4783 17.498 17.7141 17.3244C17.7786 17.3803 17.8513 17.4302 17.9393 17.472C17.8623 17.727 17.8577 18.1195 18.1596 18.4297ZM12.1229 18.6636H19.8839L19.8854 21.569C19.8854 22.532 19.3174 23.2044 18.4219 23.4236L18.5719 22.6462L18.5738 22.6352C18.5815 22.5918 18.59 22.5432 18.5962 22.5021C18.6385 22.5196 18.6835 22.5344 18.7314 22.5432C18.7875 22.5537 18.839 22.5591 18.8864 22.5591C19.1151 22.5591 19.2486 22.4392 19.3373 22.3369L19.4523 22.2034L19.3583 22.0574C19.3498 22.0429 19.1413 21.7155 18.9816 21.4913C18.9503 21.4474 18.9203 21.4031 18.89 21.3561C18.7078 21.0848 18.4798 20.7456 18.0234 20.7456L17.982 20.7463C17.9071 20.7511 17.8425 20.7655 17.79 20.7855C17.6467 20.7192 17.498 20.6841 17.3445 20.6841C17.1556 20.6841 16.9964 20.7357 16.8905 20.7719C16.8812 20.7745 16.8721 20.7774 16.8634 20.78C16.8439 20.786 16.8263 20.7915 16.8115 20.794L15.9579 20.7104C15.9473 20.7087 15.912 20.6882 15.8696 20.6381V20.6338L16.0543 20.5601C16.0024 19.9477 15.4118 19.571 15.0821 19.4436C15.0676 19.3821 15.038 19.3209 14.9864 19.271L14.8029 19.0979L14.6416 19.2899L14.5621 19.3885L13.3662 18.8993L14.1445 19.8715L13.8378 20.3341C13.7252 20.4533 13.8491 20.572 13.8491 20.572L14.1664 20.7898L14.4951 20.6675C14.5031 20.6675 14.5103 20.6688 14.5176 20.67C14.5209 20.6705 14.5242 20.671 14.5276 20.6713C14.5184 20.6991 14.508 20.7724 14.4983 20.8413C14.4906 20.8952 14.4833 20.9464 14.4774 20.9703L13.9066 20.8587L13.3072 21.1956C12.999 21.421 12.957 21.7935 13.0714 22.0486L13.1378 22.1933L13.232 22.3977L13.4424 22.3114C13.4452 22.3111 13.4481 22.3095 13.4495 22.3081C13.3743 22.5477 13.405 22.7757 13.5392 22.925L13.6669 23.0842L13.8364 23.297L14.0224 23.0986C14.0768 23.0446 14.2547 22.8463 14.3094 22.6774L14.3493 22.5477L14.2589 22.448L14.2434 22.4304L14.3461 22.2625L15.0909 22.4371L15.2583 22.4757L15.3472 22.3293L15.3959 22.2496C15.4051 22.2324 15.4072 22.2298 15.4418 22.2298C15.4679 22.2298 15.4944 22.2324 15.523 22.2389C15.8043 22.2916 16.0634 22.318 16.2932 22.318C16.5167 22.318 16.6501 22.3095 16.8086 22.2572C16.8086 22.2572 17.2086 22.7094 17.2223 22.7259L16.9777 23.4787L16.9664 23.5237C16.5029 23.5612 16.277 23.6625 16.0042 23.9337C15.6081 23.5426 15.3267 23.5013 14.2617 23.5013C12.9867 23.5013 12.1229 22.7571 12.1229 21.569V18.6636Z" fill="#FFDD2D"/>
          <path fill-rule="evenodd" clip-rule="evenodd" d="M14.3397 6.50831L14.1363 6.48687L13.9429 6.46369C14.0318 6.66323 14.0971 6.85259 14.1441 7.00927C14.6591 6.72507 15.3252 6.56311 16.0023 6.56311C16.6829 6.56311 17.3493 6.72507 17.8626 7.00927C17.9091 6.85259 17.9749 6.66323 18.0638 6.46369L17.8697 6.48687L17.666 6.50831L17.5802 6.32386L17.3207 5.77862L16.8477 6.02349L16.6634 6.11694L16.5163 5.9722L16.0023 5.4663L15.4894 5.9722L15.3429 6.11694L15.1586 6.02349L14.6835 5.77862L14.4272 6.32386L14.3397 6.50831ZM18.0431 7.46709C17.641 7.1474 16.9124 6.84702 16.0023 6.84702C15.0937 6.84702 14.368 7.1474 13.9631 7.46709C13.9631 7.46709 13.8441 6.75111 13.436 6.1198L14.1689 6.2027L14.5519 5.39187L15.29 5.76989L16.0023 5.06726L16.7172 5.76989L17.4535 5.39187L17.8373 6.2027L18.5708 6.1198C18.1623 6.75111 18.0431 7.46709 18.0431 7.46709ZM14.6079 19.924C14.5637 19.9198 14.5271 19.9543 14.5235 19.997C14.5204 20.0416 14.5535 20.0796 14.5983 20.0807C14.6417 20.0841 14.6791 20.0512 14.6834 20.0073C14.6851 19.9651 14.653 19.9257 14.6079 19.924ZM18.2055 26.016L17.8511 25.0453C18.2725 24.9179 18.9979 24.6432 19.3225 24.4601L19.1062 25.1666L19.8408 25.4092C19.3964 25.6312 18.8577 25.8382 18.2055 26.016ZM16.0042 26.8885C15.1499 26.8885 14.175 26.693 13.8876 26.5912L14.3239 25.416C14.6857 25.5214 15.4394 25.6328 15.9858 25.6293H15.9873H16.0042H16.019H16.0208C16.5669 25.6328 17.3195 25.5214 17.6834 25.416L18.1191 26.5912C17.8316 26.693 16.8567 26.8885 16.0042 26.8885ZM12.1656 25.4092L12.9012 25.1664L12.6834 24.4601C13.0078 24.643 13.7342 24.9177 14.1549 25.0453L13.8002 26.0158C13.1504 25.8381 12.6093 25.6312 12.1656 25.4092ZM19.8738 25.1936L19.4266 25.0233L19.55 24.5631L19.6859 24.0621C19.6859 24.0621 18.8939 24.4899 17.7774 24.8111C17.4607 24.9014 17.221 24.9425 17.221 24.9425V25.2839C17.221 25.2839 16.6237 25.3872 16.0208 25.3872H16.0134H16.0042H15.9926H15.9859C15.3819 25.3872 14.7857 25.2839 14.7857 25.2839V24.9425C14.7857 24.9425 14.5456 24.9014 14.2293 24.8111C13.1128 24.4899 12.3217 24.0621 12.3217 24.0621L12.4555 24.5631L12.5812 25.0233L12.1329 25.1936L11.6355 25.3788C11.6901 25.4051 11.7466 25.4325 11.805 25.4607C12.356 25.7273 13.0648 26.0704 13.7185 26.2483L13.548 26.7121C13.548 26.7121 14.4651 27.128 15.9926 27.1318V27.1325H15.9972H16.0042H16.0099H16.0134V27.1318C17.5429 27.128 18.459 26.7121 18.459 26.7121L18.2878 26.2483C18.9469 26.0688 19.663 25.7216 20.2147 25.454C20.268 25.4282 20.3201 25.403 20.3702 25.3788L19.8738 25.1936ZM27.537 18.8899C27.537 18.8899 27.2205 19.4386 26.4934 19.4386H26.4844C25.6114 19.4335 25.2599 18.9037 25.2599 18.9037C25.2599 18.9037 25.31 19.5929 24.9959 20.5228C24.6175 21.6446 24.9993 22.4453 24.9993 22.4453C24.9993 22.4453 24.7951 22.5001 24.5607 22.5001C24.471 22.5001 24.3774 22.4913 24.2887 22.4687C23.5599 22.296 23.3784 21.6355 23.3784 21.6355C23.3784 21.6355 23.4452 23.8663 20.8319 23.8663H20.8114C20.8114 23.8663 21.0418 23.5544 21.1097 22.6578C21.2339 21.0028 22.36 20.7751 22.36 20.7751C22.36 20.7751 21.7588 20.6998 21.4987 20.4677C21.0909 20.1005 21.1199 19.6758 21.1199 19.6758C22.0395 19.6632 22.6421 19.3515 23.1009 18.8235C23.5983 18.2512 23.6796 17.6347 23.6796 17.6347C23.6796 17.6347 23.1853 18.0805 22.2293 18.0805C22.1454 18.0805 22.0557 18.0767 21.9632 18.0676C21.511 18.0312 21.1982 17.745 21.1982 17.745C22.1933 17.1102 22.8917 16.0018 22.2725 14.333C21.7765 12.9959 20.5848 11.9968 19.3845 11.2443C18.9853 10.9963 18.763 10.7201 18.763 10.483C18.763 10.1404 19.0628 10.0011 19.3702 9.85819C19.5645 9.76789 19.7619 9.67619 19.8886 9.53092C20.2667 9.09423 20.0295 8.38703 19.7023 7.96089C19.7023 7.96089 19.8123 7.93839 19.9865 7.93839C20.3319 7.93839 20.9297 8.02447 21.4207 8.53177C22.0729 9.20314 21.8025 9.93492 21.8025 9.93492L21.9773 9.96865C22.0769 9.98975 22.1763 9.99456 22.2786 9.99953L22.2935 10.0003C22.3053 10.0003 22.3171 10.0006 22.3289 10.001C22.3407 10.0013 22.3526 10.0017 22.3642 10.0017C23.3117 10.0017 23.7352 9.01552 23.7352 9.01552C23.7352 9.01552 24.7427 10.2487 23.2594 11.2155C23.0041 11.3809 22.8917 11.5345 22.9213 11.6971L22.9442 11.8046L23.0498 11.8232C24.0781 12.1008 24.6208 12.7883 25.247 13.5817L25.2473 13.5821L25.2508 13.5864L25.2528 13.5889L25.2535 13.5898L25.2554 13.5922L25.2573 13.5947L25.2587 13.5963C25.2833 13.6277 25.3083 13.6592 25.3333 13.6908C26.3425 14.9671 27.7694 15.0083 27.9455 15.0083H27.965C27.965 15.0083 27.6392 16.0316 26.6794 16.0316C26.663 16.0316 26.6492 16.0316 26.6337 16.0306C26.1928 16.0148 25.9665 15.8472 25.9665 15.8472C25.9665 15.8472 25.7947 18.1697 27.537 18.8899ZM26.6795 16.345C27.8565 16.345 28.2504 15.1534 28.2662 15.1024L28.398 14.6823L27.9567 14.696H27.9552C27.7997 14.696 26.5006 14.6619 25.5802 13.4973L25.4934 13.3894L25.489 13.3837C24.8891 12.6245 24.3189 11.9029 23.3012 11.5735C23.331 11.5471 23.373 11.5145 23.4309 11.4769C23.9724 11.1231 24.2872 10.6924 24.3662 10.1928C24.4821 9.44136 23.9999 8.84167 23.9787 8.81743L23.6512 8.41447L23.4464 8.89261L23.4461 8.89319C23.4287 8.93158 23.0842 9.68869 22.3645 9.68869H22.3101C22.2973 9.68797 22.2848 9.68728 22.2722 9.68661C22.2364 9.68468 22.2011 9.68276 22.1668 9.67991C22.1921 9.33879 22.1298 8.81005 21.6475 8.31365C21.0682 7.71676 20.3579 7.62683 19.9866 7.62683C19.8117 7.62683 19.6885 7.64596 19.6518 7.65168C19.6468 7.65244 19.6436 7.65297 19.6417 7.65318L19.1469 7.75084L19.4526 8.15133C19.6914 8.46014 19.909 9.02997 19.6513 9.32718C19.5736 9.41673 19.4183 9.49031 19.2648 9.56298L19.2376 9.57592C18.9047 9.72839 18.449 9.94163 18.449 10.483C18.449 10.8329 18.7222 11.1997 19.2175 11.5113C20.6828 12.4282 21.5871 13.3856 21.9775 14.442C22.5818 16.0672 21.7932 16.9943 21.0284 17.4826L20.6845 17.7022L20.9848 17.977L20.9852 17.9772C21.0274 18.014 21.394 18.335 21.9362 18.3812C22.0393 18.3876 22.1375 18.3936 22.2297 18.3936C22.5774 18.3936 22.8741 18.3392 23.1152 18.2656C23.0489 18.3812 22.9669 18.4997 22.865 18.618C22.4272 19.1223 21.889 19.3517 21.1152 19.3642L20.8274 19.3689L20.8055 19.6558C20.8028 19.7138 20.7809 20.246 21.2874 20.699C21.3648 20.7692 21.4583 20.8267 21.5568 20.8734C21.213 21.1812 20.8641 21.7173 20.7968 22.6349C20.7396 23.4015 20.5563 23.6848 20.5539 23.6879L20.2358 24.171L20.8105 24.1787C21.7598 24.1787 22.4863 23.9183 22.99 23.4015C23.288 23.0959 23.4581 22.7506 23.5587 22.4453C23.7235 22.5855 23.9367 22.7084 24.2152 22.7737C24.3208 22.7983 24.4358 22.8113 24.5609 22.8113C24.8216 22.8113 25.0417 22.7577 25.076 22.7494L25.0784 22.7487L25.445 22.6518L25.283 22.3115L25.2823 22.3098C25.2627 22.2639 24.9702 21.5857 25.2943 20.6247C25.4363 20.2028 25.5086 19.8251 25.5439 19.5311C25.7752 19.6506 26.0843 19.7497 26.4842 19.751C27.3788 19.751 27.7805 19.0956 27.8091 19.0491L27.8102 19.0473L27.9891 18.7375L27.6578 18.6015C26.5753 18.1544 26.3361 16.9535 26.2881 16.3039C26.3859 16.3226 26.4977 16.3398 26.6237 16.3433L26.6795 16.345ZM26.0735 11.57C25.8317 11.3213 25.5761 11.2471 25.3569 11.2471C25.0162 11.2471 24.761 11.4263 24.761 11.4263C25.2556 11.6883 25.5377 12.0358 25.7747 12.3276C25.9765 12.5763 26.1456 12.7846 26.3855 12.8653C26.4741 12.8958 26.5635 12.9092 26.6527 12.9092C27.0374 12.9092 27.4089 12.6615 27.5374 12.3791C27.5374 12.3791 26.8321 12.3362 26.0735 11.57ZM25.5303 12.5242C25.3061 12.2477 25.0501 11.9357 24.6113 11.7032L24.1606 11.4618L24.5793 11.1685L24.5846 11.165C24.6392 11.1303 24.947 10.9345 25.3569 10.9345C25.706 10.9345 26.0304 11.0775 26.2984 11.349C26.9499 12.0113 27.5356 12.0647 27.5568 12.0654L28.0118 12.0921L27.8236 12.5073C27.6369 12.9215 27.1438 13.2205 26.6528 13.2205C26.5264 13.2205 26.4031 13.2015 26.2874 13.1618C25.9639 13.0553 25.7561 12.8008 25.5384 12.5342L25.5303 12.5242ZM24.8175 15.8403V15.8561C24.5533 13.7349 23.0059 12.2028 21.2831 11.2718C21.1243 11.1868 20.9767 11.1151 20.8345 11.0463C21.3584 11.1271 22.2031 11.1366 22.8546 10.5741C22.8546 10.5741 21.8575 11.3041 19.8148 10.6409C19.9785 10.7467 20.1874 10.8653 20.4258 11.0006C21.0093 11.3317 21.7698 11.7634 22.4823 12.356C24.99 14.5492 23.196 16.6884 23.196 16.6884C24.0969 15.7521 24.1343 14.7498 23.8692 13.9306C24.344 14.7172 24.6477 15.671 24.5999 16.8475C24.5307 18.5334 23.6002 19.9911 22.6203 21.1624C22.1494 21.7311 22.0445 22.4296 22.0445 22.4296C22.0445 22.4296 22.2348 21.8131 22.7796 21.1789C23.8289 19.9556 24.727 18.6857 24.8442 16.8546C24.953 17.1869 25.4003 18.1101 26.1093 18.458C26.1093 18.458 25.2181 17.9236 24.8175 15.8403ZM8.62734 21.6355C8.62734 21.6355 8.56062 23.8663 11.1742 23.8663H11.1929C11.1929 23.8663 10.9642 23.5544 10.8971 22.6578C10.7729 21.0024 9.6461 20.7751 9.6461 20.7751C9.6461 20.7751 10.2476 20.7 10.5085 20.4677C10.9151 20.1005 10.8862 19.6758 10.8862 19.6758C9.96662 19.6632 9.36476 19.3515 8.90268 18.8235C8.40848 18.2513 8.32658 17.6347 8.32658 17.6347C8.32658 17.6347 8.82078 18.0805 9.77564 18.0805C9.86143 18.0805 9.95038 18.0767 10.0429 18.0676C10.4961 18.0314 10.8092 17.745 10.8092 17.745C9.81271 17.1102 9.11483 16.0021 9.73328 14.333C10.2289 12.9959 11.4203 11.9968 12.6212 11.2443C13.0201 10.9963 13.2421 10.7201 13.2421 10.483C13.2421 10.1405 12.9427 10.0011 12.6355 9.85816C12.4414 9.76781 12.2442 9.676 12.1175 9.53057C11.7397 9.09423 11.9762 8.38669 12.3028 7.9609C12.3028 7.9609 12.1944 7.93841 12.0197 7.93841C11.6744 7.93841 11.0772 8.02449 10.5858 8.53179C9.93168 9.20314 10.2035 9.93493 10.2035 9.93493L10.0287 9.96865C9.93156 9.98925 9.83346 9.99433 9.73443 9.99946L9.71211 10.0006C9.6998 10.0006 9.68821 10.0009 9.67674 10.0012C9.66554 10.0014 9.65443 10.0017 9.64291 10.0017C8.69264 10.0017 8.27116 9.0159 8.27116 9.0159C8.27116 9.0159 7.26404 10.2487 8.74736 11.2155C9.00257 11.3806 9.11483 11.5341 9.08483 11.6971L9.06223 11.8046L8.95421 11.8232C7.92639 12.1014 7.38301 12.7896 6.7555 13.5844C6.72764 13.6196 6.69962 13.6552 6.67136 13.6908C5.6632 14.9672 4.23708 15.0083 4.05986 15.0083H4.04009C4.04009 15.0083 4.36592 16.0317 5.32644 16.0317C5.34161 16.0317 5.35608 16.0317 5.37197 16.0306C5.81357 16.0148 6.03985 15.8472 6.03985 15.8472C6.03985 15.8472 6.21035 18.1697 4.46934 18.8899C4.46934 18.8899 4.78635 19.4383 5.51316 19.4383H5.52163C6.39532 19.4335 6.74655 18.9037 6.74655 18.9037C6.74655 18.9037 6.69573 19.5929 7.00883 20.5228C7.38759 21.6446 7.00777 22.4453 7.00777 22.4453C7.00777 22.4453 7.21039 22.5001 7.44549 22.5001C7.53622 22.5001 7.62941 22.4913 7.71659 22.4684C8.44519 22.296 8.62734 21.6355 8.62734 21.6355ZM11.4515 23.686C11.452 23.6868 11.4523 23.6874 11.4523 23.6875L11.7704 24.171L11.1957 24.1787C10.2465 24.1787 9.5207 23.918 9.01556 23.4016C8.71868 23.0959 8.54784 22.7506 8.44793 22.4453C8.28415 22.5855 8.06882 22.7084 7.7903 22.7737C7.68581 22.7983 7.57037 22.8113 7.44577 22.8113C7.17958 22.8113 6.95402 22.7553 6.92855 22.7489L6.92828 22.7487L6.56079 22.6518L6.72352 22.3115L6.72464 22.3089C6.74753 22.255 7.03461 21.5794 6.71188 20.6247C6.56997 20.2024 6.49762 19.8251 6.46231 19.5311C6.23109 19.6506 5.92222 19.7497 5.52473 19.7507C4.62217 19.7507 4.21965 19.0863 4.19652 19.0482L4.19606 19.0473L4.01743 18.7372L4.34784 18.6015C5.43013 18.1544 5.67018 16.9535 5.71924 16.304C5.6197 16.3226 5.50781 16.3398 5.38355 16.3433L5.32671 16.3451C4.14909 16.3451 3.75622 15.1534 3.74068 15.1025L3.60583 14.6823L4.0492 14.696C4.20488 14.696 5.50603 14.6619 6.4256 13.4973L6.51243 13.3894L6.51861 13.3816C7.11786 12.6232 7.68719 11.9026 8.70527 11.5735C8.67563 11.5472 8.63503 11.5145 8.57608 11.4769C8.03456 11.1231 7.71935 10.6924 7.64098 10.1928C7.52599 9.45557 7.98865 8.8644 8.02385 8.81943L8.0254 8.81743L8.35652 8.41449L8.56055 8.89261C8.5736 8.92283 8.91672 9.68869 9.64319 9.68869H9.69649C9.7087 9.688 9.72077 9.68735 9.73273 9.68669C9.76886 9.68473 9.80411 9.68282 9.83911 9.67991C9.81439 9.33844 9.87758 8.81041 10.3601 8.3133C10.9394 7.71676 11.6482 7.62683 12.0199 7.62683C12.1962 7.62683 12.3186 7.64612 12.3543 7.65175C12.3589 7.65247 12.3621 7.65297 12.3638 7.65318L12.8611 7.75084L12.554 8.15135C12.3143 8.4598 12.0969 9.02997 12.3549 9.32719C12.4318 9.41579 12.5846 9.48843 12.7365 9.56061L12.7687 9.57592C13.1019 9.72839 13.5562 9.94165 13.5562 10.483C13.5562 10.8329 13.2851 11.1997 12.7898 11.5113C11.3224 12.4282 10.4194 13.3856 10.029 14.442C9.42574 16.0672 10.2112 16.9939 10.9789 17.4826L11.3224 17.7022L11.0213 17.977C10.9807 18.0128 10.6129 18.3349 10.0693 18.3812C9.9669 18.3876 9.86947 18.3936 9.77592 18.3936C9.42715 18.3936 9.13205 18.3392 8.8913 18.2656C8.95838 18.3812 9.04027 18.4993 9.14157 18.618C9.57895 19.1219 10.1187 19.3517 10.89 19.3642L11.1798 19.3689L11.1992 19.6558C11.2027 19.7138 11.2246 20.246 10.7184 20.699C10.6408 20.7692 10.5486 20.8267 10.4487 20.8734C10.7933 21.1812 11.142 21.7173 11.2105 22.6349C11.2669 23.3729 11.4378 23.6627 11.4515 23.686ZM5.93221 11.5696C6.17472 11.3212 6.42995 11.2467 6.65022 11.2467C6.98911 11.2467 7.24573 11.4259 7.24573 11.4259C6.75251 11.6877 6.47022 12.0345 6.23291 12.326C6.02981 12.5755 5.85966 12.7846 5.61841 12.8652C5.53226 12.8958 5.4426 12.9092 5.35329 12.9092C4.96887 12.9092 4.59646 12.6615 4.46939 12.379C4.46939 12.379 5.17468 12.3362 5.93221 11.5696ZM5.35315 13.2205C5.47951 13.2205 5.60236 13.2018 5.71885 13.1621C6.04352 13.0551 6.2515 12.8 6.46912 12.5331L6.47638 12.5242L6.48272 12.5164C6.7067 12.2422 6.95881 11.9335 7.39419 11.7031L7.84603 11.4618L7.42631 11.1684L7.42066 11.1649C7.36555 11.1297 7.05913 10.9345 6.65007 10.9345C6.30023 10.9345 5.97547 11.0771 5.70755 11.349C5.05591 12.0116 4.4717 12.065 4.45052 12.0653L3.99585 12.092L4.18259 12.5073C4.37004 12.9215 4.86318 13.2205 5.35315 13.2205ZM8.137 13.9306C7.66186 14.7172 7.35828 15.6707 7.40735 16.8476C7.47548 18.5336 8.40598 19.9915 9.38379 21.1624C9.85681 21.7306 9.96307 22.4296 9.96307 22.4296C9.96307 22.4296 9.77103 21.8131 9.2267 21.1786C8.17723 19.9556 7.27956 18.685 7.16095 16.8546C7.05223 17.187 6.60569 18.1103 5.89756 18.458C5.89756 18.458 6.78819 17.9238 7.18813 15.84V15.8566C7.45323 13.735 9.00044 12.2029 10.7234 11.2719C10.8651 11.1957 10.9994 11.13 11.1273 11.0674L11.1717 11.0456C10.6482 11.1272 9.80351 11.1366 9.15153 10.5742C9.15153 10.5742 10.1491 11.3042 12.1912 10.6409C12.0275 10.7467 11.8191 10.865 11.5812 11.0001C10.998 11.3313 10.2376 11.7631 9.52499 12.356C7.01621 14.5493 8.81087 16.6888 8.81087 16.6888C7.90789 15.7522 7.8719 14.7496 8.137 13.9306ZM15.4129 12.5557V12.9762C15.5587 12.7998 15.84 12.836 15.84 12.836V13.4419C15.84 13.4419 15.8305 13.7405 15.7239 13.8695H16.0295H16.3334C16.2286 13.7405 16.2177 13.4419 16.2177 13.4419V12.836C16.2177 12.836 16.5 12.7998 16.6444 12.9762V12.5557H16.0295H15.4129ZM15.4575 10.2414C15.4343 10.2338 15.3259 10.1987 15.1509 10.0607C14.8283 9.81167 14.8219 9.58227 14.8219 9.58227L15.5384 9.88192V10.2778L15.4622 10.243C15.4618 10.2428 15.4602 10.2423 15.4575 10.2414ZM16.8545 10.0607C17.1782 9.81167 17.1845 9.58227 17.1845 9.58227L16.4677 9.88192V10.2778L16.5435 10.243C16.5439 10.2428 16.5455 10.2423 16.5482 10.2414C16.5715 10.2338 16.6798 10.1987 16.8545 10.0607ZM14.2766 8.32743L16.0024 9.00581L17.7286 8.32743C17.5828 7.98138 16.9061 7.68769 16.0024 7.68662C15.1001 7.68769 14.4238 7.98138 14.2766 8.32743ZM16.1291 11.7397L17.2894 11.132L17.7031 8.74477L16.1291 9.27666V11.7397ZM18.5384 12.0918L18.0078 11.7854L17.4627 11.4745L16.0066 12.2635L16.0024 12.2604L15.9995 12.2635L14.5434 11.4745L13.9984 11.7854L13.4668 12.0918H13.4611L13.3266 12.1694C13.6263 12.2516 13.854 12.3992 14.0475 12.5952C14.0505 12.5981 14.0534 12.6013 14.0562 12.6045C14.0605 12.6095 14.0649 12.6145 14.0704 12.6187C14.1131 12.6644 14.1555 12.7143 14.1961 12.7642C14.1978 12.7663 14.1996 12.7685 14.2014 12.7706C14.209 12.7798 14.2166 12.7889 14.2243 12.8C14.2617 12.8492 14.2995 12.9022 14.3362 12.956C14.3408 12.9619 14.3453 12.9687 14.3499 12.9757C14.3534 12.981 14.3571 12.9865 14.3609 12.9918C14.4047 13.0572 14.446 13.1257 14.4869 13.1959C14.864 13.8434 15.4669 14.2306 16.0024 14.2313C16.5386 14.2306 17.1412 13.8434 17.5189 13.1959C17.5605 13.1239 17.6029 13.0537 17.6466 12.9887C17.653 12.9795 17.6601 12.9697 17.6661 12.9602C17.7031 12.9043 17.7422 12.8499 17.7829 12.7975C17.7874 12.7917 17.7918 12.7861 17.7961 12.7807C17.8001 12.7756 17.8041 12.7707 17.8077 12.7659C17.8497 12.7143 17.8931 12.664 17.9372 12.617C17.9406 12.6138 17.9439 12.6105 17.9472 12.6073C17.9508 12.6035 17.9546 12.5998 17.9584 12.5966C18.1507 12.4009 18.3791 12.2516 18.6788 12.1694L18.5453 12.0918H18.5384ZM19.883 14.962C19.883 14.6261 19.9809 14.2885 20.0996 13.9766H17.3784C16.9618 14.3879 16.5619 14.5408 16.2043 14.5759C16.1397 14.5826 16.074 14.5868 16.0077 14.5868H16.0024H15.9985C15.9321 14.5868 15.8657 14.5826 15.8015 14.5759C15.739 14.5706 15.6734 14.5608 15.6077 14.5457C15.5844 14.6384 15.5544 14.8313 15.6395 15.0154C15.7157 15.1816 15.8689 15.3056 16.0931 15.3878L16.1686 15.417L16.1697 15.4977C16.1697 15.522 16.1873 16.0462 16.761 16.1916L16.7645 16.188C16.8566 16.0935 16.9404 16.0077 17.0028 15.9362C16.8856 15.6611 16.947 15.3808 17.1175 15.2434C17.1101 15.2726 17.0352 15.9601 17.5887 16.2155L17.6802 16.2591L17.653 16.356C17.6442 16.3848 17.4595 17.0502 18.1299 17.2979L18.2486 17.3422L18.1962 17.457C18.1843 17.483 17.9217 18.0865 18.5408 18.4291H19.884V17.3685C19.4068 17.3102 19.2041 16.9283 19.1519 16.6574C18.9302 16.6198 18.7582 16.5239 18.64 16.3687C18.3884 16.0383 18.5553 15.7332 18.5958 15.6591C18.6006 15.6503 18.6037 15.6448 18.604 15.6428C18.6037 15.646 18.604 16.0061 18.8274 16.2281C18.9376 16.3349 19.0692 16.4182 19.2669 16.4368L19.3647 16.4459L19.3735 16.545C19.3752 16.5665 19.4286 17.0537 19.884 17.13L19.883 14.962ZM18.5718 22.6459L18.4218 23.4233C19.3174 23.2041 19.8854 22.5317 19.8854 21.5689L19.884 18.6635H12.1225V21.5689C12.1225 22.7574 12.9867 23.501 14.2617 23.501C15.3271 23.501 15.6077 23.5425 16.0041 23.9335C16.277 23.6624 16.5026 23.5611 16.9664 23.5236L16.9774 23.4783L17.2223 22.7264C17.2086 22.7088 16.8086 22.2571 16.8086 22.2571C16.6498 22.3094 16.5163 22.3182 16.2932 22.3182C16.0634 22.3182 15.804 22.2915 15.523 22.2388C15.4947 22.2324 15.4683 22.23 15.4418 22.23C15.4072 22.23 15.4054 22.2324 15.3959 22.2493L15.3476 22.329L15.2586 22.4756L15.0906 22.4369L14.3461 22.2624L14.2441 22.4303L14.2592 22.4482L14.3493 22.5476L14.309 22.6769C14.2547 22.8462 14.0768 23.0443 14.0224 23.0984L13.8364 23.2976L13.6669 23.0841L13.5395 22.9249C13.4057 22.7756 13.3746 22.5476 13.4502 22.3077C13.4484 22.3094 13.4452 22.3104 13.4424 22.3111L13.2324 22.3976L13.1381 22.1935L13.0714 22.0487C12.957 21.7933 12.999 21.4209 13.3072 21.1953L13.9066 20.8588L14.4774 20.9706C14.4836 20.9461 14.491 20.8936 14.4988 20.8385C14.5084 20.7706 14.5186 20.6988 14.5275 20.6712C14.5239 20.6707 14.5203 20.6702 14.5168 20.6695C14.5096 20.6683 14.5025 20.6669 14.4947 20.6669L14.1664 20.7892L13.8491 20.5722C13.8491 20.5722 13.7255 20.4527 13.8374 20.334L14.1442 19.8713L13.3665 18.8992L14.5621 19.3882L14.6419 19.2898L14.8032 19.0976L14.9864 19.2709C15.0383 19.3208 15.068 19.3818 15.0824 19.4433C15.4114 19.5706 16.0024 19.9476 16.0546 20.5601L15.8696 20.634V20.6378C15.9124 20.6881 15.9469 20.7084 15.9579 20.7105L16.8118 20.7942C16.826 20.7914 16.8424 20.7863 16.8607 20.7808C16.8703 20.7778 16.8804 20.7747 16.8909 20.7716C16.9964 20.7362 17.1556 20.6838 17.3448 20.6838C17.4984 20.6838 17.6466 20.7186 17.7899 20.7854C17.8426 20.7658 17.9072 20.751 17.9823 20.7463L18.0233 20.7453C18.4799 20.7453 18.7072 21.0839 18.8892 21.355L18.8899 21.356C18.9202 21.4033 18.9502 21.4469 18.9817 21.4912C19.1415 21.7152 19.3496 22.0425 19.3584 22.0571L19.4522 22.2033L19.3372 22.3368C19.2485 22.4391 19.1148 22.5588 18.886 22.5588C18.8391 22.5588 18.788 22.5536 18.7315 22.5429C18.6831 22.5338 18.6386 22.5195 18.5963 22.502C18.5896 22.5466 18.5799 22.5999 18.5718 22.6459ZM13.6817 21.8811L13.6415 21.7805C13.6125 21.7152 13.6164 21.6443 13.6718 21.6057L13.9983 21.3815L14.5437 21.4855C14.5437 21.4855 14.4452 21.3625 14.4547 21.1982L13.9341 21.0885L13.4431 21.3858C13.2324 21.5428 13.2172 21.7988 13.2871 21.951L13.352 22.0933C13.352 22.0933 13.6552 21.9693 13.6817 21.8811ZM18.1723 23.4712L18.34 22.602C18.3586 22.5071 18.3764 22.38 18.3764 22.38C18.3669 22.3705 18.3557 22.3597 18.3431 22.3475C18.2679 22.2743 18.1423 22.1525 18.0667 22.0094C18.0044 21.89 17.9926 21.8007 17.9794 21.6997C17.9677 21.6093 17.9546 21.5098 17.9029 21.371C17.9029 21.371 17.9365 21.3029 18.0142 21.3029C18.0261 21.3029 18.0395 21.3043 18.0522 21.3078C18.154 21.3365 18.2236 21.5084 18.3021 21.7023C18.4084 21.9651 18.5314 22.2688 18.7735 22.3132C18.815 22.3213 18.8529 22.3242 18.886 22.3242C19.0082 22.3242 19.0806 22.2729 19.1586 22.1808C19.1586 22.1808 18.9468 21.8499 18.789 21.6264C18.7556 21.5799 18.7234 21.532 18.6912 21.4841C18.5207 21.2304 18.3529 20.9807 18.0233 20.9807C18.0142 20.9807 18.0028 20.9807 17.9933 20.9821C17.8642 20.9881 17.7846 21.051 17.7846 21.051C17.6262 20.952 17.4779 20.9182 17.3448 20.9182C17.1938 20.9182 17.0634 20.9606 16.9631 20.9933C16.9005 21.0136 16.8496 21.0303 16.8129 21.0303H16.8093L15.9353 20.9439C15.7983 20.9311 15.69 20.7942 15.6511 20.7401C15.6416 20.7257 15.6363 20.7169 15.6363 20.7169C15.6363 20.6936 15.6363 20.6692 15.6349 20.6476C15.6053 19.9358 15.0514 19.6314 14.8541 19.6264C14.8541 19.6264 14.8774 19.4915 14.8241 19.4395L14.631 19.6723L13.9984 19.3563L14.4502 19.8814L14.0679 20.3087C14.0196 20.3574 14.0256 20.4229 14.0457 20.4506L14.2109 20.596L14.4206 20.4699C14.4308 20.4618 14.4502 20.4597 14.4728 20.4597C14.4996 20.4597 14.5327 20.4628 14.5682 20.4663C14.6095 20.4702 14.654 20.4746 14.6959 20.4746C14.7814 20.4746 14.8551 20.4565 14.8639 20.3767C14.8561 20.4565 14.8281 20.5538 14.7974 20.6609C14.7264 20.9084 14.6406 21.2075 14.7535 21.4591L14.8735 21.7318L14.1001 21.6205L13.7382 22.229C13.6263 22.4313 13.609 22.6502 13.716 22.7696L13.8516 22.9382C13.8516 22.9382 14.0415 22.7381 14.0838 22.606L14.0224 22.5388C13.9705 22.4818 13.9733 22.4313 14.0051 22.3705L14.2317 21.9963L15.1446 22.21L15.1933 22.1284C15.2551 22.0259 15.344 21.9953 15.4418 21.9953C15.4824 21.9953 15.5237 21.9999 15.5664 22.007C15.7359 22.0402 16.0144 22.0845 16.2933 22.0845C16.599 22.0845 16.9032 22.0301 17.0649 21.8499C17.2342 22.0996 17.4925 22.2419 17.6972 22.3545C17.8921 22.4618 18.0381 22.5423 18.0124 22.6632L17.8363 23.4983C17.9527 23.4936 18.0653 23.4859 18.1723 23.4712ZM17.2114 23.5093C17.3085 23.5055 17.4175 23.5041 17.5351 23.5041C17.5351 23.5041 17.8161 22.6867 17.832 22.6607C17.6745 22.5919 17.348 22.4193 17.2216 22.3402C17.2489 22.3809 17.2889 22.4234 17.329 22.466C17.4116 22.5536 17.4946 22.6416 17.4673 22.7155L17.2114 23.5093ZM13.7633 14.9704L13.7269 16.3502L13.8847 16.3744L14.2701 15.0498L14.0746 14.6426L13.7633 14.9704ZM14.1572 16.9954C14.0933 16.955 14.0015 16.8844 13.9503 16.7779C13.8924 16.6553 13.8088 16.5984 13.687 16.5984C13.5282 16.5984 13.3587 16.6933 13.2857 16.7379C13.2278 17.0783 13.4798 17.3867 13.6489 17.4489C13.8021 17.5044 13.9881 17.5159 14.0834 17.5159C14.0846 17.5118 14.0862 17.5073 14.0878 17.5023C14.0908 17.4935 14.0942 17.4834 14.0971 17.4724C14.1053 17.4446 14.113 17.4162 14.1194 17.386C14.1459 17.249 14.1554 17.0948 14.1572 16.9954ZM16.4754 17.9277C16.6992 17.7722 17.3159 17.3242 17.5549 17.1489C17.3808 16.896 17.3642 16.5956 17.4034 16.3848C17.2894 16.3121 17.2026 16.2295 17.133 16.1424C16.8688 16.4292 16.3752 16.9072 16.2625 17.0163C16.2506 17.0279 16.2429 17.0353 16.2403 17.0379L16.2053 17.073L14.3962 17.0442C14.3948 17.2231 14.3658 17.3745 14.3376 17.4858C14.3349 17.4969 14.3319 17.5083 14.3289 17.5197C14.3268 17.5275 14.3248 17.5353 14.3228 17.5431L16.4754 17.9277ZM15.3804 14.4789C15.14 14.3918 14.8865 14.2323 14.6274 13.9766H11.9069C12.0237 14.2885 12.1226 14.6261 12.1226 14.962V18.4291H18.1595C17.8578 18.1192 17.8626 17.7269 17.9386 17.4725C17.8511 17.4303 17.7787 17.3801 17.7141 17.3246C17.4779 17.4978 16.7585 18.0192 16.5697 18.1506L16.5294 18.1769L14.1604 17.7514H14.1121C14.0552 17.7514 13.9723 17.749 13.8812 17.7381C13.8558 17.8445 13.7633 17.9169 13.6578 17.9169C13.6458 17.9169 13.6323 17.9162 13.62 17.9138C13.5582 17.9033 13.5045 17.8719 13.4686 17.8203C13.4315 17.7696 13.417 17.7093 13.4272 17.6474L13.4357 17.5962C13.1918 17.4251 12.9662 17.0425 13.0661 16.6388L13.0757 16.596L13.1106 16.5717C13.1152 16.5678 13.1561 16.5401 13.2172 16.5057L13.0453 16.4793C12.9807 16.4681 12.9373 16.408 12.9475 16.3451C12.9585 16.2812 13.0192 16.2348 13.0827 16.2471L13.4929 16.3121L13.5303 14.8749L14.1407 14.2323L14.5215 15.0301L14.1195 16.4126L14.4817 16.4695C14.5455 16.4797 14.589 16.5391 14.5794 16.6044C14.5699 16.6624 14.5205 16.7014 14.4633 16.7014C14.457 16.7014 14.4509 16.7014 14.4446 16.7006L14.1502 16.6536C14.152 16.6577 14.1542 16.661 14.1564 16.6642C14.1589 16.6679 14.1614 16.6716 14.1632 16.6764C14.1943 16.7414 14.2642 16.7871 14.3052 16.8074L16.1108 16.8359L16.1181 16.8287C16.199 16.7501 16.3832 16.571 16.5721 16.3813C16.1273 16.2137 15.966 15.8329 15.9388 15.5796C15.6907 15.4742 15.5191 15.3165 15.4238 15.1117C15.308 14.8576 15.349 14.6029 15.3804 14.4789ZM15.8767 9.27666L14.3012 8.74477L14.7164 11.132L15.8767 11.7397V9.27666ZM16.0062 7.30581C17.1281 7.30581 18.1447 7.84648 18.1447 8.44757L18.1228 8.59547L17.6745 11.1551L18.1228 11.4151L19.2891 12.0918H19.285C19.285 12.0918 19.5471 12.2256 19.6668 12.3082C20.1127 12.6142 20.2059 13.0617 19.9482 13.2465C19.884 12.8819 19.5948 12.501 19.053 12.501C18.6622 12.501 18.365 12.7006 18.1228 13.0024C18.0626 13.0782 18.0038 13.1594 17.9484 13.2465C17.8807 13.3568 17.8135 13.4534 17.7465 13.5462H20.7466C20.5253 13.9874 20.3164 14.4544 20.3164 14.962V21.5689C20.3164 23.1683 19.0823 23.9311 17.7448 23.9311C17.6669 23.9311 17.5941 23.9307 17.5258 23.9305C16.6874 23.9274 16.5287 23.9269 16.0041 24.4496C15.4773 23.9269 15.3184 23.9274 14.4806 23.9305C14.4123 23.9307 14.3396 23.9311 14.2617 23.9311C12.9253 23.9311 11.6894 23.1683 11.6894 21.5689V14.962C11.6894 14.4544 11.4801 13.9874 11.2595 13.5462H14.2593C14.1918 13.4534 14.1241 13.3568 14.0566 13.2465C14.0023 13.1594 13.9433 13.0782 13.8812 13.0024C13.6415 12.7016 13.3436 12.501 12.9532 12.501C12.4106 12.501 12.1211 12.8819 12.0576 13.2465C11.8003 13.0617 11.8945 12.6142 12.3379 12.3082C12.4593 12.2256 12.7212 12.0918 12.7212 12.0918H12.717L13.8812 11.4151L14.3316 11.1551L13.8833 8.59547L13.8611 8.44757C13.8611 7.84648 14.8777 7.30581 15.9995 7.30581H16.0024H16.0052H16.0062Z" fill="#231F20"/>
        </g>
        <defs>
          <clipPath id="clip0_857_4802">
            <rect width="31" height="31" fill="white" transform="translate(0.5 0.5)"/>
          </clipPath>
        </defs>
        </symbol>
      </svg>